<svg xmlns="http://www.w3.org/2000/svg" width="447.7" height="417.238" viewBox="0 0 447.7 417.238">
  <g id="error" transform="translate(-25.35 -50.262)">
    <g id="Floor">
      <path id="Floor_5_" d="M407.5,431.2c-87.4,48.4-229.2,48.4-316.6,0s-87.4-126.9,0-175.4c87.4-48.4,229.2-48.4,316.6,0S494.9,382.8,407.5,431.2Z" fill="#f5f5f5"/>
    </g>
    <g id="Shadow">
      <path id="Shadow_6_" d="M116.9,416.4l-4.8-2.8c-3.3-1.9-3.3-5,0-6.9l135.5-78.5a13.134,13.134,0,0,1,11.9,0l4.8,2.8c3.3,1.9,3.3,5,0,6.9L128.8,416.4A13.134,13.134,0,0,1,116.9,416.4Z" fill="#e0e0e0"/>
      <ellipse id="Shadow_5_" cx="51.4" cy="24.5" rx="51.4" ry="24.5" transform="translate(297.8 342.3)" fill="#e0e0e0"/>
    </g>
    <g id="Plants">
      <g id="Plants_2_">
        <g id="XMLID_1284_">
          <g id="XMLID_1288_">
            <path id="XMLID_1290_" d="M358.9,330.8c.6-7.5,7.3-22.5,15.8-31.6S396,284,404.5,287.6c7.9,3.4,6.1,13.9-4.2,20.2-10.4,6.2-25.8,13.9-31.1,25.7L359,347.7V330.8Z" fill="#758ac3"/>
            <path id="XMLID_1289_" d="M359,330.8c.6-7.5,7.3-22.5,15.8-31.6s21.3-15.2,29.8-11.6c7.9,3.4,6.1,13.9-4.2,20.2-10.4,6.2-25.8,13.9-31.1,25.7L359,347.6Z" opacity="0.1"/>
          </g>
          <g id="XMLID_1286_">
            <path id="XMLID_1287_" d="M357.6,341c.2,0,.5-.2.5-.4,7.1-25.1,29.4-44.2,42.1-47.8a.57.57,0,1,0-.3-1.1c-13,3.7-35.7,23.1-42.9,48.6a.569.569,0,0,0,.4.7Z" fill="#fff"/>
          </g>
        </g>
        <g id="XMLID_1277_">
          <g id="XMLID_1281_">
            <path id="XMLID_1283_" d="M360,357.7c1.5-4.1,7.2-10.6,16-15.7,9.7-5.6,21.6-7.6,24.6-12.3,3.7-5.7-.9-11.7-10.4-11.3s-27.2,12-31.4,31.1Z" fill="#758ac3"/>
          </g>
          <g id="XMLID_1278_">
            <path id="XMLID_1279_" d="M358.6,353.1a.55.55,0,0,0,.5-.3c9.6-21.3,26.9-27.6,34.7-28a.552.552,0,0,0-.1-1.1c-8.6.4-25.9,6.9-35.7,28.6a.517.517,0,0,0,.3.7A.367.367,0,0,0,358.6,353.1Z" fill="#fff"/>
          </g>
        </g>
      </g>
      <g id="Plants_1_">
        <g id="XMLID_1250_">
          <path id="XMLID_1251_" d="M113.7,372.7c-.7-8.3-4.5-22-14.2-35-10.4-13.9-23-22.7-32.4-18.6-8.7,3.8-5.4,15.9,9.6,27.8,10.6,8.4,21.5,19.2,27.4,32.3l9.5,16.7V372.7Z" fill="#758ac3"/>
        </g>
        <g id="XMLID_1248_" opacity="0.1">
          <path id="XMLID_1249_" d="M114,372.7c-.7-8.3-4.5-22-14.2-35-10.4-13.9-23-22.7-32.4-18.6C58.7,322.9,62,335,77,346.9c10.6,8.4,21.5,19.2,27.4,32.3l9.5,16.7V372.7Z"/>
        </g>
        <g id="XMLID_1246_">
          <path id="XMLID_1247_" d="M112.8,379a.622.622,0,0,1-.6-.4c-8.4-23.1-25.9-46.5-40.6-54.3a.583.583,0,0,1,.6-1c15,8,32.7,31.7,41.2,55a.629.629,0,0,1-.4.8C113,379,112.9,379,112.8,379Z" fill="#fff"/>
        </g>
        <g id="XMLID_1232_">
          <path id="XMLID_1245_" d="M112.8,401.2a35.481,35.481,0,0,1-16.7,7.2C85.6,410,81,404.9,81,404.9s4.1-9.9,10.1-12.6c0,0-10.1,2.1-18.3,7.5,0,0-6.4.1-9-9.7,0,0,3.8-5.9,16.6-9.1,0,0-7.8-2-19,.9-.8.3-4.4-12.4-5.5-18.2-1.1-5.9,1.3-5.8,5.8-7,4.6-1.2,20.1-2,23,.5S89,368.3,89,368.3s2.7-4.9,2.1-9.2a16.032,16.032,0,0,1,9.7.2c5.1,1.8,4.8,4.3,4.8,8a40.991,40.991,0,0,1-1.5,11.1s3.5-3.1,3.7-14.4c0,0,6.9,5.9,9.7,11C120.2,380.2,119.5,393.6,112.8,401.2Z" fill="#758ac3"/>
          <g id="XMLID_1243_">
            <path id="XMLID_1244_" d="M112.8,401.8a.55.55,0,0,1-.5-.3c-8.5-17.7-40.1-38.2-51.4-40.4a.608.608,0,0,1,.2-1.2c11.5,2.2,43.6,23.1,52.2,41a.67.67,0,0,1-.3.8A.349.349,0,0,1,112.8,401.8Z" fill="#fff"/>
          </g>
        </g>
      </g>
    </g>
    <g id="Device">
      <g id="Device_1_">
        <g id="Device_2_">
          <path id="XMLID_1297_" d="M120.2,410.3l-3.1-1.8a9.819,9.819,0,0,1-4.5-7.8V131.4a9.819,9.819,0,0,1,4.5-7.8L241.3,51.9a10.168,10.168,0,0,1,9,0l3.1,1.8a9.819,9.819,0,0,1,4.5,7.8V330.8a9.819,9.819,0,0,1-4.5,7.8L129.2,410.3A10.168,10.168,0,0,1,120.2,410.3Z" fill="#37474f" stroke="#000" stroke-miterlimit="10" stroke-width="0.75"/>
          <path id="XMLID_1296_" d="M130.8,136.6,114,126.9a9.329,9.329,0,0,0-1.3,4.5V400.7a9.819,9.819,0,0,0,4.5,7.8l3.1,1.8a10.168,10.168,0,0,0,9,0l1.5-.9V136.6Z" fill="#263238" stroke="#000" stroke-miterlimit="10" stroke-width="0.75"/>
          <path id="XMLID_1295_" d="M124.7,138.4V407.7c0,2.9,2,4.1,4.5,2.6l124.2-71.7a9.819,9.819,0,0,0,4.5-7.8V61.4c0-2.9-2-4.1-4.5-2.6L129.2,130.5A10.154,10.154,0,0,0,124.7,138.4Z" fill="#455a64" stroke="#000" stroke-miterlimit="10" stroke-width="0.75"/>
          <path id="XMLID_1294_" d="M134.6,155.4,248,89.9c2.1-1.2,3.9-.2,3.9,2.2V307a8.319,8.319,0,0,1-3.9,6.7L134.6,379.2c-2.1,1.2-3.9.2-3.9-2.2V162.2A8.877,8.877,0,0,1,134.6,155.4Z" fill="#fafafa" stroke="#000" stroke-miterlimit="10" stroke-width="0.75"/>
          <path id="XMLID_1276_" d="M191.3,101.7c1.7-1,3-.2,3,1.7a6.724,6.724,0,0,1-3,5.2c-1.7,1-3,.2-3-1.7A6.724,6.724,0,0,1,191.3,101.7Z" fill="#263238" stroke="#000" stroke-miterlimit="10" stroke-width="0.75"/>
          <g id="XMLID_1273_">
            <path id="XMLID_1275_" d="M182.6,116.8c6.2-3.4,17.1-9.9,23.2-13.5,1-.6,1.9-.2,1.9.9a3.9,3.9,0,0,1-1.9,3.1l-23.2,13.4c-1,.6-1.9.2-1.9-.9A3.733,3.733,0,0,1,182.6,116.8Z" fill="#263238" stroke="#000" stroke-miterlimit="10" stroke-width="0.75"/>
            <path id="XMLID_1274_" d="M176.7,120.2c.9-.5,1.7-.1,1.7,1a3.69,3.69,0,0,1-1.7,2.9c-.9.5-1.7.1-1.7-1A3.852,3.852,0,0,1,176.7,120.2Z" fill="#263238" stroke="#000" stroke-miterlimit="10" stroke-width="0.75"/>
          </g>
          <path id="XMLID_1272_" d="M191.3,353.4c3.3-1.9,6.1-.4,6.1,3.5a13.2,13.2,0,0,1-6.1,10.5c-3.3,1.9-6.1.4-6.1-3.5A14.077,14.077,0,0,1,191.3,353.4Z" fill="#263238" stroke="#000" stroke-miterlimit="10" stroke-width="0.75"/>
        </g>
        <g id="Alert">
          <path id="XMLID_1382_" d="M233.4,248.6l-35.6-74.3a2.474,2.474,0,0,0-1-1.2h0l-3.1-1.8h0c-.7-.4-1.4.1-1.8,1.4L155.3,291.4c-.3,1.1-.2,1.8.3,2h0l3,1.8h0c.4.2,1,.1,1.9-.3l71.1-41A4.069,4.069,0,0,0,233.4,248.6Z" fill="#758ac3" stroke="#000" stroke-miterlimit="10" stroke-width="0.75"/>
          <path id="XMLID_1379_" d="M233.4,248.6l-35.6-74.3a2.474,2.474,0,0,0-1-1.2h0l-3.1-1.8h0c-.7-.4-1.4.1-1.8,1.4L155.3,291.4c-.3,1.1-.2,1.8.3,2h0l3,1.8h0c.4.2,1,.1,1.9-.3l71.1-41A4.069,4.069,0,0,0,233.4,248.6Z" stroke="#000" stroke-miterlimit="10" stroke-width="0.75" opacity="0.1"/>
          <path id="XMLID_1378_" d="M158.6,293.2l36.6-118.7c.6-2,1.8-2.1,2.7-.2l35.6,74.3a4.156,4.156,0,0,1-1.6,5.3l-71.1,41C158.9,295.9,158,295.2,158.6,293.2Z" fill="#758ac3" stroke="#000" stroke-miterlimit="10" stroke-width="0.75"/>
          <path id="XMLID_1383_" d="M194,237.9l-.9-20.2c-.2-3.9-.3-6.8-.3-8.5a15.394,15.394,0,0,1,1.2-6.3,8.465,8.465,0,0,1,3.2-3.9c1.6-.9,2.7-.7,3.2.7a22.19,22.19,0,0,1,.8,6.9c0,1.9-.1,3.9-.2,5.9l-1.2,22a31.415,31.415,0,0,1-.8,6.3,5.04,5.04,0,0,1-2.1,3.3c-1,.6-1.7.3-2.1-.8A28.481,28.481,0,0,1,194,237.9Zm3.1,24.1a2.4,2.4,0,0,1-3,0c-.9-.6-1.3-2-1.3-4a12.755,12.755,0,0,1,1.2-5.3,7.854,7.854,0,0,1,3-3.6,2.378,2.378,0,0,1,3,.1,5.25,5.25,0,0,1,1.2,3.8,11.444,11.444,0,0,1-1.3,5.5A7.269,7.269,0,0,1,197.1,262Z" fill="#fff" stroke="#000" stroke-miterlimit="10" stroke-width="0.75"/>
        </g>
      </g>
    </g>
    <g id="Character">
      <g id="Character_3_">
        <g id="XMLID_1528_">
          <path id="XMLID_1529_" d="M424.1,165.2c-2.4,1.1-10.2,1.5-17.4,1.1a70.787,70.787,0,0,1-23.3-6.2c-8.7-4.4-20.1-12.5-25-15.3s-7.6-1.9-10.4-.3c-3.3,2-3.9,6.3,2.6,11.2a150.01,150.01,0,0,0,29.1,16.6,78.333,78.333,0,0,0,24.2,5.3c7.7.4,13.9.3,21.3-1.8C427.4,175.1,426.4,164.2,424.1,165.2Z" fill="#ffa8a7"/>
        </g>
        <g id="Group_536" data-name="Group 536">
          <path id="XMLID_531_" d="M416,165.6c-.2.9-2.5.9-2.5.9s-1.7,2.2-1.2,6.7,1.9,5.3,1.9,5.3a24.592,24.592,0,0,0,13.1-2.9Z" fill="#e0e0e0"/>
          <path id="XMLID_394_" d="M423,176.3c6.9-.2,9.5-3.7,10.4-9.8,1-6.1.8-14,.9-16.1s-.5-2.8-1.4-2.9c-.3,0-1.6.3-1.8,2.5-.3,4.1-.4,6.6-1.2,6.6s-.7-3.1-.6-7.2c0-2.8,0-5.1-1.6-5.1s-2.1,1.7-2.1,5.4c-.1,3.8,0,6.5-1,6.6-.8.1-.6-3.9-.8-6.5s-.2-4.1-1.8-4.1c-1.5,0-1.9,2.1-1.8,4.6.1,2.3,0,9.5-.3,10.4-.4,1.5-2-2.2-3.1-3.7-1.8-2.5-4.1-1.3-3.2.9a40.988,40.988,0,0,1,2.5,8.5C416.7,169.3,417.8,176.4,423,176.3Z" fill="#ebebeb"/>
          <path id="XMLID_88_" d="M423,163.8s4.2,4.3,2.7,9a5.935,5.935,0,0,0,.7-6.2A4.986,4.986,0,0,0,423,163.8Z" fill="#e0e0e0"/>
        </g>
        <g id="XMLID_538_">
          <path id="XMLID_99_" d="M351,142.1c2.8.3,5.5-.2,13.7,5.3,8.2,5.6,14.5,9.1,14.5,9.1s.4,9.5-4.8,15.6a136.5,136.5,0,0,1-14.8-6.9C353.7,161.7,351,142.1,351,142.1Z" fill="#758ac3"/>
          <path id="XMLID_533_" d="M351,142.1c2.8.3,5.5-.2,13.7,5.3,8.2,5.6,14.5,9.1,14.5,9.1s.4,9.5-4.8,15.6a136.5,136.5,0,0,1-14.8-6.9C353.7,161.7,351,142.1,351,142.1Z" opacity="0.05"/>
        </g>
        <g id="XMLID_1504_">
          <g id="XMLID_816_">
            <rect id="XMLID_1525_" width="9.8" height="16.7" transform="translate(328.436 361.565) rotate(180)" fill="#ffa8a7"/>
            <path id="XMLID_1524_" d="M350.5,349.4l9.7.3.5-17.6-9.8-.4Z" fill="#ffa8a7"/>
            <path id="XMLID_1523_" d="M319.3,212.5V280c-.2,2.7-2.2,7.3-2.7,18.7-.7,14-1.2,52.3-1.2,52.3s7.3,4.7,13.7.2c0,0,8.7-55,10.4-68.8,1.5-12.1,4.1-45,4.1-45l3.4,50.3a153.216,153.216,0,0,0-1.9,15.5c-.3,6.4,2.5,38.8,2.5,38.8s7.7,4.4,13.4,1.4c0,0,4.2-50.5,5.2-56.3s-1.2-74.7-1.2-74.7H319.3Z" fill="#263238"/>
            <path id="XMLID_1506_" d="M328.4,356.7v-1.4c.9.4,3.1,8.7,7,12.2,3.1,2.8,7.3,6,8.3,9.2,1.1,3.3-5.8,5.1-8.7,4.5-3.3-.6-9.1-2.9-10.6-5.1s-2.1-5.4-3.3-7-3.9-3.4-4.5-5.2c-.4-1,.1-3.2.6-5.1.5-1.7.9-3.6,1.5-3.5v1.1a7.255,7.255,0,0,0,4.9,1.6C324.9,358.1,328.4,357.8,328.4,356.7Z" fill="#263238"/>
            <path id="XMLID_1505_" d="M360.3,346.7c.5,0,.9.7,2,1.9a22.514,22.514,0,0,0,5.7,4.1c3.7,1.8,10.8,4.6,14,6.1,2,.9,1.9,3.3-.2,4.7s-7.1,2.4-13.1,1c-3.3-.7-7.5-3.8-10.2-3.6s-7.8.1-9.7-1.2c-2-1.4-1.2-4.3-.6-6.8.6-2.8,1.5-7,2.4-6.8v.9c1.2,1.8,7.1,2.5,9.7,1.2Z" fill="#263238"/>
            <path id="XMLID_1501_" d="M343.6,237.4a36.223,36.223,0,0,0,13.6-7.8s-2.6,4.9-10.4,9.5L345.6,267Z"/>
          </g>
          <path id="XMLID_1522_" d="M328.7,145.1a25.852,25.852,0,0,0-4,.9c-2.7,1.1-3.9,4.3-4.5,7.3a32.238,32.238,0,0,0-.8,7.4v51.8c6.8,7.4,30.7,10.9,45.6,0,0,0-.3-45.7-1.4-53.3-1.9-13.1-8.2-17.7-14.5-17.2L334,144.2Z" fill="#758ac3"/>
          <g id="XMLID_546_">
            <path id="XMLID_541_" d="M326.2,145.5c-4.7.7-9.4.4-14.3,7.3-5.5,7.7-7.1,9.3-15.5,22.7-3.2,5.1-6.9,10.2-6.7,11.7.5,4.4,8.3,15.4,16,22.8l7.9-6.8-8.8-16.6s7-7.9,9.8-11.2c4.7-5.6,8.5-10,8.5-10C325.6,159.9,327.7,155.2,326.2,145.5Z" fill="#ffa8a7"/>
            <path id="XMLID_539_" d="M327.9,145.2s-7.3-.8-11.7,2.3-16.9,21.7-16.9,21.7,3.4,9.6,12.6,11.5c0,0,9.3-11,11.7-14.2C326.3,162.9,329.3,155.7,327.9,145.2Z" fill="#758ac3"/>
            <path id="XMLID_540_" d="M327.9,145.2s-7.3-.8-11.7,2.3-16.9,21.7-16.9,21.7,3.4,9.6,12.6,11.5c0,0,9.3-11,11.7-14.2C326.3,162.9,329.3,155.7,327.9,145.2Z" fill="#758ac3" opacity="0.1"/>
            <g id="XMLID_542_">
              <path id="XMLID_543_" d="M339.4,215.7a39.106,39.106,0,0,1-6.4-.3c-2.5-.4-6.7-1.9-6.8-2.7s1.3-.7,3.1-2c2.7-2,2.7-3.7,2-4.7-.6-.8-2.2.6-4.5,1.6-2.2.7-5.8.3-8.1-.4s-5.3-5.3-5.3-5.3-6.5,2.4-8.6,8.3c0,0,4.7,7.6,9.9,12a24.662,24.662,0,0,0,14.3,5.5c4,.2,6.1-1.4,6.8-2.9a3.416,3.416,0,0,0,3.1-1.7,2.665,2.665,0,0,0-.2-2.4C342.6,219.3,341.8,215.7,339.4,215.7Z" fill="#ebebeb"/>
              <path id="XMLID_544_" d="M338.7,220.7c-2.8.6-9.1.3-12.2-1.3,0,0,1.9,1.8,6.5,2.1s6-.2,6-.2Z" fill="#e0e0e0"/>
              <path id="XMLID_545_" d="M335.8,224.8a19.162,19.162,0,0,1-11.7-2.1s3.6,3.3,11.3,2.8C335.5,225.3,335.7,225,335.8,224.8Z" fill="#e0e0e0"/>
            </g>
          </g>
          <g id="XMLID_1507_">
            <g id="XMLID_1515_">
              <path id="XMLID_1521_" d="M327.9,120.3s2.2,10.5,3.1,12.3a4.863,4.863,0,0,0,2.8,2.2l-.2-7.4Z" fill="#263238"/>
              <path id="XMLID_1520_" d="M330.7,105.2a5.276,5.276,0,0,0-4.3,1.5c-1.8,1.9-.8,7.8,1.5,13.6l4.2.5Z" fill="#263238"/>
              <path id="XMLID_1519_" d="M333.4,120.8c-.8.5-2.1-1.1-3.1-2.2s-4.5-2.6-6.2,1c-1.7,3.7,1.5,8.5,4.2,9.3,4.6,1.5,5.3-1.5,5.3-1.5l.4,16.7s6,6.4,14.3,7.5l.8-8v-5.1a30.63,30.63,0,0,0,6.2.3c3.4-.5,5.5-3.2,6.6-6.9,1.7-5.9,2.3-10.7.9-22.3-1.5-12.8-16.4-12.9-24.4-7.8C330.3,106.9,333.4,120.8,333.4,120.8Z" fill="#ffa8a7"/>
              <path id="XMLID_1518_" d="M333.4,122.3c-.4,0-2-2.7-3.1-3.6-1.5-1.3.4-13.4.4-13.4,1.8-8.3,16.1-9.4,24.1-6.8,4.2,1.3,6.8,3.2,6.7,6.7-.5,2.3-5.6,3.5-7.5,3.8-5.4.7-13.8-.8-14.9-1-1.6-.2-2,.3-2.9,4.4C335.4,116,334.8,122.2,333.4,122.3Z" fill="#263238"/>
              <path id="XMLID_1517_" d="M330.7,106.2l-5.1-2.8a2.873,2.873,0,0,1,3.9-1.3A3.164,3.164,0,0,1,330.7,106.2Z" fill="#263238"/>
              <path id="XMLID_1516_" d="M349,138.6s-7.6-1.5-10.3-2.9a9.128,9.128,0,0,1-3.7-3.6,11.681,11.681,0,0,0,2.1,4.3c1.9,2.5,11.8,4.3,11.8,4.3Z" fill="#f28f8f"/>
            </g>
            <g id="XMLID_1508_">
              <path id="XMLID_1514_" d="M347.7,120.3a1.5,1.5,0,1,1-1.5-1.6A1.63,1.63,0,0,1,347.7,120.3Z" fill="#263238"/>
              <path id="XMLID_1513_" d="M346.1,114.6l-3.3,1.8a1.967,1.967,0,0,1,.8-2.6A1.771,1.771,0,0,1,346.1,114.6Z" fill="#263238"/>
              <path id="XMLID_1511_" d="M361.3,115.9l-3-2.3a1.808,1.808,0,0,1,2.6-.4A2.005,2.005,0,0,1,361.3,115.9Z" fill="#263238"/>
              <path id="XMLID_1510_" d="M360.3,119.9a1.5,1.5,0,1,1-1.5-1.6A1.5,1.5,0,0,1,360.3,119.9Z" fill="#263238"/>
              <path id="XMLID_1509_" d="M352.1,117.1l.5,9.1,4.8-1.6Z" fill="#f28f8f"/>
            </g>
          </g>
        </g>
        <g id="XMLID_1242_">
          <path id="XMLID_1088_" d="M365.5,137.2a6.61,6.61,0,0,0-3-5.2,2.038,2.038,0,0,0-2.1-.2h0l-3,1.7,4.3,7.3,3-1.7h0A2.026,2.026,0,0,0,365.5,137.2Z" fill="#455a64"/>
          <path id="XMLID_1398_" d="M359.6,133.8a6.889,6.889,0,0,1,3,5.2c0,1.9-1.3,2.7-3,1.7a6.889,6.889,0,0,1-3-5.2C356.6,133.6,357.9,132.8,359.6,133.8Z" fill="#37474f"/>
          <path id="XMLID_1089_" d="M353.6,130.4v1a1.524,1.524,0,0,0,.6,1.1l5.3,3.1v-1.7Z" fill="#37474f"/>
          <path id="XMLID_1090_" d="M356.6,128.6l-3,1.8,6,3.4,2.9-1.7Z" fill="#455a64"/>
          <g id="XMLID_687_">
            <path id="XMLID_812_" d="M364.9,130.8s.2-.5.5-1.3.7-1.8,1.1-2.8.8-2.1,1.1-2.8a1.689,1.689,0,0,0,.2-.5c.1-.1.1-.3.2-.4a.781.781,0,0,1,.5-.2l.2.1a.765.765,0,0,1,.2.5c0,.1-.1.3-.1.4-.1.2-.1.3-.2.5-.3.7-.9,1.7-1.4,2.7s-1.1,1.9-1.4,2.6a9.873,9.873,0,0,0-.9,1.2Z" fill="#e0e0e0"/>
            <path id="XMLID_813_" d="M367.4,133.2s.5-.3,1.2-.7,1.7-.9,2.6-1.5c1-.5,1.9-1.1,2.7-1.4a1.689,1.689,0,0,1,.5-.2.756.756,0,0,1,.4-.1.765.765,0,0,1,.5.2l.1.2a.781.781,0,0,1-.2.5c-.1.1-.2.1-.4.2a.764.764,0,0,1-.5.2c-.7.3-1.8.7-2.8,1.1s-2,.8-2.8,1.1c-.7.2-1.2.4-1.3.4Z" fill="#e0e0e0"/>
            <path id="XMLID_814_" d="M367.6,137s.5.1,1.4.2c.8.1,1.9.3,3,.5s2.2.3,3,.5a4.331,4.331,0,0,1,.5.1c.2,0,.3.1.4.1a.781.781,0,0,1,.3.4v.2a1.866,1.866,0,0,1-.4.3.6.6,0,0,1-.4-.1c-.2,0-.3-.1-.5-.1-.8-.2-1.8-.5-2.9-.8-1-.3-2.1-.6-2.9-.9a9.476,9.476,0,0,1-1.5-.4Z" fill="#e0e0e0"/>
            <path id="XMLID_815_" d="M366.2,140.3s.4.4,1,.9c.6.6,1.4,1.3,2.2,2.1s1.6,1.5,2.1,2.1c.1.2.3.3.4.4l.3.3a.781.781,0,0,1,0,.5l-.2.1a.781.781,0,0,1-.5,0l-.3-.3c-.1-.1-.2-.3-.4-.4-.5-.6-1.2-1.5-1.9-2.4s-1.3-1.7-1.8-2.4a6.58,6.58,0,0,1-.9-.9Z" fill="#e0e0e0"/>
          </g>
          <g id="XMLID_681_">
            <path id="XMLID_8_" d="M361.1,131.7l-2,1.1,1,.6,2-1.1Z" fill="#37474f"/>
            <path id="XMLID_680_" d="M359.1,132.8l2-1.1v.4l-1.7.9Z" fill="#263238"/>
            <path id="XMLID_676_" d="M361.1,132.1l.7.3.3-.1-1-.6Z"/>
          </g>
        </g>
      </g>
    </g>
  </g>
</svg>
