<svg xmlns="http://www.w3.org/2000/svg" width="333.425" height="340.838" viewBox="0 0 333.425 340.838">
  <g id="layer101" opacity="0.07">
    <path id="Path_518" data-name="Path 518" d="M1351.164,580.258c-2.962-1.294-8.987-4.35-10.207-5.176-.672-.446-2.241-1.428-3.485-2.142a81.285,81.285,0,0,1-8.315-5.756c-2.615-1.963-10.706-9.191-12.6-11.221-2.813-3.1-6.523-7.407-7.693-9.013-3.66-4.975-4.83-6.67-6.324-9.058a109.057,109.057,0,0,1-6.523-12.359,25.435,25.435,0,0,0-1.07-2.521c-2.017-3.525-6.124-18.026-6.9-24.339-.149-1.227-.373-3.19-.548-4.35-.374-2.811-.349-23.826.025-28a225.977,225.977,0,0,1,3.286-23.759c1.618-8.946,1.718-9.5,3.012-14.612.672-2.7,1.444-5.956,1.743-7.25.847-3.7,3.361-12.761,3.934-14.032a6.052,6.052,0,0,0,.5-1.651,50.157,50.157,0,0,1,1.519-5.176c.822-2.588,1.892-5.934,2.34-7.474s1.021-3.235,1.244-3.793.971-2.565,1.644-4.462c3.012-8.455,5.029-13.854,5.228-13.965a.684.684,0,0,0,.224-.558,53.152,53.152,0,0,1,1.992-5.287c1.07-2.655,2.042-5.131,2.141-5.51.1-.357.946-2.365,1.917-4.462.946-2.075,1.867-4.239,2.041-4.8.274-.937,3.311-7.764,3.834-8.634.125-.223.647-1.294,1.145-2.409,2.988-6.514,4.456-9.615,5.552-11.6a32.436,32.436,0,0,0,1.543-3.123c.175-.491,1.867-3.859,3.784-7.474s3.984-7.563,4.556-8.745c.6-1.182,1.543-2.856,2.091-3.7.548-.87,1.494-2.5,2.091-3.659.6-1.138,2.016-3.57,3.162-5.421,1.12-1.829,3.062-5,4.307-7.027s2.713-4.283,3.286-5.019a18.234,18.234,0,0,0,1.32-1.986c.323-.669,2.166-3.346,4.854-7.072.847-1.16,1.893-2.61,2.291-3.19,1.469-2.1,2.315-3.19,4.954-6.492,1.469-1.829,2.813-3.436,2.988-3.569a10,10,0,0,0,1.021-1.115,106.926,106.926,0,0,1,8.016-8.277c4.929-4.551,8.838-7.451,12.025-8.9a4.806,4.806,0,0,0,2.041-1.428,1.353,1.353,0,0,1,.872-.692c.572.022,1.319.513,1.319.915a5.74,5.74,0,0,0,.822,1.539c.448.669,1.419,2.387,2.141,3.793,2.714,5.332,3.411,6.626,4.183,7.808a7.364,7.364,0,0,1,.822,1.428c0,.268,3.46,6.737,5.8,10.842.946,1.651,2.091,3.859,2.589,4.908a36.994,36.994,0,0,0,1.817,3.458c.523.87,2.142,3.815,3.61,6.581,1.444,2.766,3.535,6.626,4.606,8.589s2.017,3.793,2.116,4.083,1.743,3.391,3.66,6.916c1.892,3.525,3.66,6.8,3.909,7.3s1.344,2.5,2.465,4.462c1.1,1.963,2.067,3.815,2.166,4.127s.871,1.807,1.718,3.346c.871,1.539,2.664,4.908,3.984,7.474,1.319,2.588,3.137,5.934,4.008,7.474s1.917,3.547,2.315,4.462,1.817,3.681,3.137,6.113a37.686,37.686,0,0,1,2.39,4.93,29.355,29.355,0,0,1-1.568,3.926c-2.465,5.354-3.51,7.741-4.406,9.905-1.27,3.123-1.768,4.127-2.141,4.127-.349,0-1.1-.848-1.1-1.272a33.547,33.547,0,0,0-1.768-3.569c-.971-1.807-1.991-3.77-2.241-4.35s-1-2.03-1.668-3.235-1.518-2.833-1.892-3.636-1.519-3.012-2.515-4.908c-2.564-4.819-7.095-13.787-7.095-14.032a.341.341,0,0,0-.174-.29,35.194,35.194,0,0,1-3.087-5.733,11.32,11.32,0,0,0-.946-1.9c-.249-.379-1.668-2.989-3.137-5.823-1.469-2.811-2.763-5.243-2.863-5.354a9.172,9.172,0,0,1-.747-1.45c-.274-.669-1.269-2.588-2.215-4.239-.921-1.651-1.842-3.369-2.017-3.793s-1.046-2.142-1.942-3.793c-.871-1.651-2.216-4.216-2.962-5.689s-1.444-2.766-1.569-2.9c-.1-.112-.722-1.294-1.344-2.61-.622-1.339-1.743-3.436-2.49-4.685a37.358,37.358,0,0,1-1.842-3.413c-.274-.6-1.643-3.213-3.037-5.8-3.908-7.184-5.129-9.481-5.726-10.82-.871-1.9-1.071-1.986-1.992-1.093-.423.424-1.419,1.517-2.191,2.432s-1.867,2.186-2.415,2.789c-1.145,1.227-4.431,5.31-5.2,6.425-.274.4-1.12,1.517-1.917,2.5-.772.982-2.091,2.811-2.913,4.038-.822,1.249-1.892,2.744-2.365,3.346a23.444,23.444,0,0,0-1.519,2.208c-.374.625-1.245,1.963-1.942,3.012s-1.519,2.365-1.842,2.922c-.324.58-1.071,1.74-1.668,2.566-.622.848-1.718,2.655-2.49,3.993-.747,1.361-1.817,3.168-2.365,4.016-.523.87-2.017,3.48-3.311,5.8-1.295,2.343-3.137,5.644-4.108,7.362s-2.116,3.9-2.54,4.841-1.419,2.945-2.241,4.462-1.643,3.146-1.867,3.636-1.12,2.32-1.992,4.038c-.871,1.74-1.668,3.413-1.768,3.726a28.974,28.974,0,0,1-1.618,3.324c-.8,1.495-1.693,3.369-1.991,4.15-.5,1.316-2.962,6.871-3.909,8.857-.249.491-.672,1.495-1,2.231-.3.736-1.195,2.856-1.967,4.685-2.041,4.774-2.041,4.618-.771,5.622.6.469,1.618,1.249,2.29,1.74s1.942,1.517,2.838,2.253c.9.758,2.116,1.762,2.714,2.231.622.491,1.792,1.428,2.639,2.1.822.669,2.739,2.186,4.232,3.346s3.336,2.677,4.083,3.346,1.718,1.45,2.116,1.74c.423.268,1.394,1.026,2.166,1.673.772.625,2.714,2.209,4.332,3.5s3.734,2.989,4.705,3.793c1,.8,2.689,2.164,3.759,3.012,1.1.87,2.664,2.119,3.485,2.789.822.692,2.515,2.03,3.735,3.012,1.245.959,2.962,2.365,3.859,3.123.9.736,3.087,2.5,4.855,3.9s3.685,2.967,4.233,3.48a20.248,20.248,0,0,0,1.991,1.562,26.016,26.016,0,0,1,2.514,1.985c.846.736,2.689,2.253,4.108,3.346,1.419,1.116,3.012,2.454,3.585,2.989a18.116,18.116,0,0,0,2.091,1.718c.6.424,1.892,1.45,2.888,2.276,2.54,2.142,4.009,3.324,5.851,4.73,2.764,2.1,2.639,1.941,2.315,2.632-.149.335-.647,1.405-1.1,2.387s-1.544,3.012-2.39,4.529a24.317,24.317,0,0,0-1.568,2.967,14.317,14.317,0,0,1-1.817,3.547,14.061,14.061,0,0,1-2.116-1.584c-1.071-.87-4.556-3.748-7.768-6.4-3.212-2.632-6.573-5.421-7.469-6.2-.9-.759-2.564-2.119-3.734-3.034-1.145-.892-3.062-2.454-4.232-3.458s-2.614-2.209-3.237-2.677-1.867-1.472-2.738-2.231c-1.967-1.673-8.913-7.407-9.56-7.875-.249-.178-1.444-1.138-2.614-2.119-1.17-1-2.913-2.387-3.834-3.1s-2.266-1.807-2.988-2.409c-1.17-1-3.436-2.833-5.577-4.506-.423-.335-1.394-1.138-2.141-1.762-.747-.647-2.813-2.32-4.556-3.726-1.768-1.405-3.734-3.034-4.381-3.614a5.783,5.783,0,0,0-1.394-1.071,16.82,16.82,0,0,1-2.365-1.829c-1.2-1.026-3.261-2.7-4.556-3.748-1.32-1.049-3.087-2.521-3.959-3.3a9.494,9.494,0,0,0-1.792-1.383,54.887,54.887,0,0,0-2.49,6.313c-2.216,6.068-2.888,8.076-5,14.769-.548,1.718-1.395,4.283-1.867,5.689A29.68,29.68,0,0,0,1316.31,411c-.1.491-.9,3.458-1.768,6.581-2.664,9.615-6.1,24.228-6.473,27.373-.075.714-.349,2.61-.6,4.194-.7,4.283-1.319,8.411-2.092,14.166a105.367,105.367,0,0,0-1.02,17.736c0,10.552.273,12.716,2.614,22.421.4,1.651.846,3.569,1,4.239.573,2.766,3.809,10.976,5.9,14.947.622,1.16,1.568,3.012,2.091,4.127a28.264,28.264,0,0,0,2.066,3.458c.6.8,1.27,1.807,1.519,2.231a46.574,46.574,0,0,0,3.66,5.265,5.546,5.546,0,0,1,.946,1.361,5.971,5.971,0,0,0,1.071,1.339c.6.625,1.519,1.673,2.042,2.32a112.43,112.43,0,0,0,10.008,9.927c4.008,3.347,11.128,8.366,13.27,9.348a13.72,13.72,0,0,0,2.963.669,23.011,23.011,0,0,0,8.863-.781,100.708,100.708,0,0,0,11.2-5.02c1.519-.826,2.913-1.562,3.112-1.651a26.416,26.416,0,0,0,3.61-2.164c.149-.134,1.369-.914,2.739-1.74,1.369-.8,3.56-2.164,4.855-3.012,1.294-.87,3.535-2.276,4.979-3.168,1.444-.87,3.112-1.963,3.71-2.409s1.967-1.294,3.038-1.918c1.045-.6,3.361-2.008,5.128-3.079a70.707,70.707,0,0,1,7.667-4.417c.548-.245,1.668-.826,2.49-1.316,2.689-1.584,13.02-6.023,14.042-6.023.3,0,.522-.067.522-.178,0-.357,5.652-1.919,9.834-2.744,2.166-.4,3.51-.491,10.132-.58,8.042-.112,11.154.045,16.506.848a113.832,113.832,0,0,1,11.452,2.409,8.821,8.821,0,0,0,1.693.446c.8.156,3.485.937,5.975,1.74s5.377,1.7,6.4,2.008a24.82,24.82,0,0,1,2.988,1.071,50.788,50.788,0,0,0,5.875,2.343c.374,0,3.685,1.383,11.8,4.953,8.514,3.7,8.689,3.792,11.079,4.93,2.191,1.026,14.017,6.18,14.191,6.18.05,0,.946.357,1.991.781a67.5,67.5,0,0,0,8.216,2.566,3.459,3.459,0,0,1,.946.335c1.618.736,6.1,1.316,10.506,1.316,5.8.022,8.515-.424,10.083-1.651a4.043,4.043,0,0,1,1.693-.892c.623,0,.722-.089,3.56-2.922a85.039,85.039,0,0,0,6.2-6.514c.622-.781,1.568-1.919,2.141-2.543a42.038,42.038,0,0,0,2.589-3.436c.847-1.271,1.718-2.476,1.867-2.655.323-.357,1.867-2.766,3.834-6.023a33.127,33.127,0,0,0,1.693-3.123,51.067,51.067,0,0,1,2.863-5.8c.548-.379,4.755-13.051,5.178-15.616.125-.8.4-2.164.6-3.056l.324-1.606-.747-.6a68.543,68.543,0,0,0-6.025-3.77c-.847-.513-2.166-1.316-2.888-1.807a37.886,37.886,0,0,0-5.153-3.079,13.647,13.647,0,0,1-2.39-1.45,17.3,17.3,0,0,0-2.341-1.517c-2.788-1.428-4.929-2.61-5.4-2.945a23.193,23.193,0,0,0-2.365-1.361c-1.021-.535-2.415-1.361-3.112-1.785a37.524,37.524,0,0,0-3.56-1.9,25.778,25.778,0,0,1-3.486-1.919,11.408,11.408,0,0,0-2.042-1.227,35.359,35.359,0,0,1-5-2.454,21.3,21.3,0,0,0-2.365-1.182c-1.07-.469-2.689-1.272-3.56-1.762-.871-.513-2.589-1.383-3.859-1.941-1.245-.558-3.336-1.584-4.631-2.253-1.294-.692-3.884-1.963-5.726-2.811-1.843-.87-3.485-1.673-3.635-1.763-.648-.469-6.5-3.324-9.187-4.506a37.827,37.827,0,0,1-3.859-1.9,11.182,11.182,0,0,0-3.411-1.629,10.3,10.3,0,0,1-1.867-.848,41.17,41.17,0,0,0-3.685-1.852c-3.261-1.517-8.066-3.837-8.713-4.194-.2-.112-1.369-.6-2.564-1.115a34.878,34.878,0,0,1-3.461-1.718,19.783,19.783,0,0,0-3.013-1.428,16.917,16.917,0,0,1-2.514-1.16,34.354,34.354,0,0,0-3.386-1.673c-1.444-.625-3.062-1.405-3.61-1.7-.548-.312-3.013-1.472-5.477-2.565a47.175,47.175,0,0,1-5.228-2.566,3.868,3.868,0,0,0-.946-.58,40.594,40.594,0,0,1-5.527-2.343,34.067,34.067,0,0,0-4.78-2.119,4.641,4.641,0,0,1-.9-.491c-.448-.29-2.913-1.472-5.527-2.655-2.589-1.182-5.4-2.521-6.2-2.967a13.37,13.37,0,0,0-1.643-.8,9.944,9.944,0,0,0-1.12,2.186c-.971,2.231-3.461,7.563-6.622,14.211-.971,2.1-1.992,4.306-2.216,4.908a36.094,36.094,0,0,1-2.365,5.019,29.28,29.28,0,0,0-1.942,4.239c-.224.558-.921,2.119-1.544,3.458-.647,1.361-1.469,3.213-1.867,4.127s-1.32,2.945-2.066,4.484c-.747,1.562-1.668,3.614-2.016,4.573a66.762,66.762,0,0,1-3.187,7.451,16.14,16.14,0,0,0-1.046,2.454c-.473,1.294-1.419,3.748-2.141,5.466s-1.544,3.837-1.867,4.685c-.324.87-1.369,3.525-2.34,5.912s-1.768,4.484-1.768,4.64c0,.4-2.739,7.9-2.988,8.187a15.411,15.411,0,0,0-1.244,3.369c0,.2-.8,2.632-1.743,5.4-.971,2.789-2.041,6.068-2.365,7.3s-.921,3.079-1.32,4.1l-.7,1.9-1.369.4c-.747.245-2.017.558-2.838.736s-2.838.736-4.481,1.249c-5.9,1.807-7.27,2.186-10.133,2.878-2.44.6-2.937.8-2.937,1.138,0,.268-.174.424-.5.424-.423,0-.5-.134-.448-.781.025-.424.149-.781.249-.781s.2-.245.2-.535a52.88,52.88,0,0,1,1.768-5.4c.971-2.7,1.992-5.533,2.241-6.336s1.294-3.614,2.315-6.247,2.39-6.247,3.037-8.031a33.97,33.97,0,0,1,1.494-3.681,20.051,20.051,0,0,0,.97-2.342c.374-1.049,1.2-3.146,1.818-4.685s1.27-3.146,1.444-3.569,1.22-2.878,2.34-5.466c1.12-2.566,2.365-5.577,2.788-6.693a58.426,58.426,0,0,1,3.037-6.871,16.151,16.151,0,0,0,1.046-2.275c.174-.625,2.739-6.4,8.265-18.516,1.22-2.7,2.639-5.644,3.137-6.514a10.72,10.72,0,0,0,.9-1.852c0-.223,1.344-3.168,2.49-5.466.249-.491,1.543-3.146,2.863-5.912,1.344-2.766,2.515-5.109,2.639-5.22a1.01,1.01,0,0,0,.224-.6,48.718,48.718,0,0,1,3.087-6.514,14.849,14.849,0,0,0,1.046-2.164,14.444,14.444,0,0,1,.846-1.9,2.843,2.843,0,0,0,.373-.781,18.933,18.933,0,0,1,.921-1.941c.4-.781,1.27-2.588,1.917-4.016.672-1.45,1.817-3.882,2.564-5.421s1.917-3.949,2.564-5.354,1.568-3.168,2.016-3.926a7.2,7.2,0,0,0,.847-1.629c0-.156.946-2.231,2.116-4.6,1.17-2.387,2.116-4.373,2.116-4.462s.647-1.361,1.469-2.856a61.636,61.636,0,0,0,3.012-6.291c.324-.736,1.22-2.543,2.042-4.016a31.7,31.7,0,0,0,1.444-2.833c0-.112.946-2.1,2.116-4.439,1.17-2.32,2.116-4.328,2.116-4.44s.9-1.919,1.967-4.06c1.071-2.119,2.265-4.551,2.664-5.421.373-.848,1.27-2.655,1.967-4.016.722-1.339,1.568-3.056,1.917-3.792s1.22-2.5,1.942-3.9,1.469-2.967,1.668-3.458c.2-.469,1.12-2.276,2.041-4.016.946-1.718,1.842-3.5,2.017-3.993.3-.825,2.913-6.113,3.61-7.273.174-.312.722-1.405,1.22-2.454.473-1.049,1.2-2.5,1.594-3.235s.971-1.941,1.295-2.677,1.444-3.034,2.539-5.086c1.07-2.075,1.942-3.837,1.942-3.926,0-.156,1.967-4.216,2.888-5.934a2.545,2.545,0,0,1,.672-.959c.1-.045.125-.178.025-.29-.074-.112,0-.2.125-.2a.323.323,0,0,0,.274-.357,34.715,34.715,0,0,1,1.892-4.083c1.045-2.03,2.042-4.06,2.216-4.506.174-.424,1.17-2.342,2.215-4.239a35.009,35.009,0,0,0,1.892-3.725c0-.268.872-1.986,5.851-11.757,1-1.963,2.141-4.261,2.515-5.131.373-.848,1.145-2.409,1.718-3.458s1.693-3.19,2.44-4.8c2.639-5.555,4.381-8.7,4.83-8.79a5.339,5.339,0,0,1,2.44.982c.149.134.771.625,1.419,1.071a97.494,97.494,0,0,1,12.05,11.422c1.045,1.227,2.19,2.543,2.515,2.9,1.444,1.606,4.133,4.863,4.755,5.778.374.535,1.37,1.874,2.191,2.967.846,1.093,1.768,2.365,2.042,2.833s1.22,1.807,2.116,2.989c1.718,2.342,5.651,8.254,6.1,9.236a8.986,8.986,0,0,0,1.145,1.606,21.15,21.15,0,0,1,1.917,2.967c.6,1.071,1.469,2.566,1.942,3.3,2.813,4.395,10.979,18.762,10.979,19.3a28.776,28.776,0,0,0,1.543,2.967,21.622,21.622,0,0,1,1.494,2.9c-.025.089.075.156.249.156.149,0,.2.067.125.134-.1.089,0,.424.2.736.647,1.048,4.357,8.567,4.531,9.147a21.494,21.494,0,0,0,1.419,2.811c.7,1.227,1.593,2.989,1.991,3.9,1.27,2.989,2.191,5,2.813,6.247,1,1.941,5.552,12.248,5.925,13.385.1.312.772,1.874,1.494,3.458.7,1.606,1.618,3.748,1.991,4.8.4,1.049,1.693,4.35,2.888,7.362,2.017,5.109,5.378,14.255,6.324,17.289.249.736.547,1.584.7,1.9a3.524,3.524,0,0,1,.274.669,1.987,1.987,0,0,0,.175.335c.249.335,2.215,6.247,2.44,7.317.125.513.946,3.257,1.867,6.068,1.892,5.8,5.4,18.16,6.025,21.194.224,1.116.747,3.257,1.145,4.8,1,3.793,2.863,12.6,3.162,15.059.149,1.115.473,3.279.747,4.841a181.207,181.207,0,0,1,3.013,32.437,93.238,93.238,0,0,1-2.39,23.179c-.473,2.1-1,4.35-1.145,5.019a77.35,77.35,0,0,1-2.639,8.745c-.274.535-.846,1.919-1.294,3.079a84.059,84.059,0,0,1-3.585,8.143c-1.469,2.923-6.349,11.155-6.921,11.712-.249.245-.374.446-.274.446s.074.089-.075.179a18.728,18.728,0,0,0-1.643,2.186,84.681,84.681,0,0,1-5.825,7.34c-.15.134-.822.87-1.469,1.673-1,1.227-5.627,6.023-6.872,7.116a125.514,125.514,0,0,1-11.128,9.058c-.374.245-1.768,1.227-3.112,2.186l-2.44,1.74-4.9.134c-8.39.223-13.917-.4-20.589-2.32-1.494-.424-3.012-.915-3.361-1.071s-1.469-.558-2.49-.915c-1.021-.335-2.813-1.026-3.983-1.539s-2.514-1.071-2.988-1.249a56.014,56.014,0,0,1-5.8-2.722,22.155,22.155,0,0,0-2.714-1.272,21.818,21.818,0,0,1-2.639-1.2c-7.071-3.5-10.9-5.354-12.871-6.157-1.22-.491-2.863-1.272-3.685-1.718s-3.012-1.428-4.879-2.186-4.332-1.785-5.5-2.3c-1.17-.491-2.838-1.16-3.734-1.495s-2.066-.781-2.614-.982a92.65,92.65,0,0,0-8.838-2.811,33.84,33.84,0,0,1-3.361-1,63.945,63.945,0,0,0-9.187-2.008c-1.12-.112-3.361-.357-5-.558-11.054-1.272-21.162-.179-29.751,3.212a26.211,26.211,0,0,1-3.212,1.138,107.528,107.528,0,0,0-10.605,4.953c-1.494.8-3.51,1.852-4.481,2.365-.946.491-2.514,1.428-3.486,2.052a17.906,17.906,0,0,1-2.116,1.294c-.324.112-2.315,1.316-7.593,4.618-.946.6-2.291,1.472-2.938,1.941a5.6,5.6,0,0,1-1.519.848,5.246,5.246,0,0,0-1.419.848,66.839,66.839,0,0,1-5.826,3.815c-1.643.982-3.261,1.963-3.61,2.164a71,71,0,0,1-7.1,3.993c-1.22.6-3.162,1.539-4.282,2.119-3.709,1.9-14.838,5.2-18.5,5.488A4.862,4.862,0,0,1,1351.164,580.258Zm251.822-107.463c-.3-4.395-.7-8.031-1.593-14.5-.324-2.32-.722-5.243-.9-6.47-.448-3.435-4.282-21.84-4.854-23.313-.125-.335-2.913-10.664-3.361-12.493-.349-1.338-1.369-4.729-2.29-7.473-.423-1.227-1.07-3.279-1.469-4.573-.374-1.294-1.021-3.3-1.419-4.462-.822-2.476-2.34-7.005-3.087-9.258a15.2,15.2,0,0,0-.7-1.785,41.722,41.722,0,0,1-1.618-4.239c-1.469-4.149-2.589-7.117-5.154-13.609-.821-2.075-1.594-4.038-1.693-4.35-.125-.312-.722-1.74-1.344-3.19a26.1,26.1,0,0,1-1.145-2.967,16.452,16.452,0,0,0-1.1-2.5,65.064,65.064,0,0,1-2.888-6.291c-.5-1.361-2.439-5.667-3.485-7.7-.249-.491-1.07-2.186-1.817-3.793-.747-1.584-1.718-3.569-2.141-4.395a9.357,9.357,0,0,1-.771-1.785,28.152,28.152,0,0,0-1.594-3.19c-.871-1.584-1.992-3.748-2.465-4.8-.5-1.048-1.295-2.655-1.793-3.569-.523-.915-2.49-4.573-4.406-8.143-1.917-3.547-3.635-6.626-3.809-6.8s-1.121-1.785-2.141-3.569c-1-1.785-2.166-3.793-2.614-4.462-.423-.669-1.444-2.276-2.241-3.569s-1.817-2.878-2.265-3.5a13.468,13.468,0,0,1-1.071-1.74,31.409,31.409,0,0,0-1.867-2.811c-.9-1.227-1.892-2.722-2.216-3.279-.6-1.049-6.573-9.147-7.369-9.972a16.211,16.211,0,0,1-1.071-1.45,14.652,14.652,0,0,0-1.618-1.985l-1-.982-.647,1.138a6.13,6.13,0,0,0-.647,1.405,72.269,72.269,0,0,1-3.112,6.537c-1.518,2.922-5.054,10.061-5.2,10.552-.1.268-1.021,2.052-2.042,3.949a39.331,39.331,0,0,0-1.842,3.681,53.423,53.423,0,0,1-3.51,6.894.172.172,0,0,0-.074.29c.074.112.025.2-.1.2s-.3.29-.374.647a12.2,12.2,0,0,1-.747,1.829c-1.768,3.436-2.938,5.867-3.784,7.786-.522,1.16-1.394,2.922-1.942,3.9a35.4,35.4,0,0,0-1.593,3.235c-.822,1.919-3.261,6.894-3.71,7.518a1.761,1.761,0,0,0-.348.736c0,.112-.846,1.9-1.892,3.949-1.046,2.075-2.116,4.283-2.365,4.93s-1.121,2.409-1.917,3.9c-.822,1.495-1.718,3.279-1.992,3.949-.423,1.026-2.714,5.8-4.83,10.039-2.266,4.551-2.813,5.667-3.361,7.027-.348.87-1.419,3.056-2.34,4.863-.946,1.829-1.718,3.391-1.718,3.5,0,.223-6.274,13.3-7.12,14.791a15.78,15.78,0,0,0-.946,2.119,41.455,41.455,0,0,1-2.913,5.979,18.626,18.626,0,0,0-1.22,2.476c0,.245-1.22,2.945-3.66,8.009l-1.718,3.57,1.17.558c.623.29,3.809,1.718,7.021,3.146,3.236,1.45,5.925,2.722,6,2.833a7.583,7.583,0,0,0,2.465,1.138,24.7,24.7,0,0,1,3.037,1.361c1.519.758,3.336,1.606,4.058,1.874a9.321,9.321,0,0,1,1.743.8c.224.178,5.9,2.744,5.9,2.744s5.875,2.722,6.348,3.079a7.332,7.332,0,0,0,2.017.915,20.874,20.874,0,0,1,2.863,1.2c.946.491,2.739,1.338,3.958,1.852a25.316,25.316,0,0,1,2.614,1.227c.2.156,2.888,1.428,5.975,2.811,3.087,1.361,5.95,2.722,6.348,3.012a13.677,13.677,0,0,0,2.066.959,21.865,21.865,0,0,1,2.988,1.339c.921.491,2.564,1.272,3.66,1.74a30.8,30.8,0,0,1,2.838,1.339c.448.268,3.187,1.562,6.1,2.878,2.888,1.294,5.477,2.566,5.751,2.789a7.4,7.4,0,0,0,1.494.781,21.308,21.308,0,0,1,3.934,1.74,31.629,31.629,0,0,0,3.361,1.606,26.6,26.6,0,0,1,3.162,1.517c.423.268,2.091,1.115,3.734,1.852,5.851,2.655,6.722,3.079,7.569,3.569.448.29,2.091,1.071,3.61,1.763a28.593,28.593,0,0,1,3.261,1.651,10.031,10.031,0,0,0,1.892.959,34.954,34.954,0,0,1,3.734,1.874,38.788,38.788,0,0,0,3.784,1.919,27.607,27.607,0,0,1,3.461,1.829,24.34,24.34,0,0,0,2.863,1.562,30.165,30.165,0,0,1,2.888,1.517c1.12.669,2.962,1.629,4.083,2.142a21.5,21.5,0,0,1,2.863,1.584c.8.625,1.12.8,4.431,2.387a14.687,14.687,0,0,1,2.116,1.182,14.451,14.451,0,0,0,1.743,1.071l1.245.692.075-2.61C1603.235,477.993,1603.136,475,1602.986,472.795Z" transform="translate(-1287.237 -240)" fill="#162347"/>
  </g>
</svg>
