<svg xmlns="http://www.w3.org/2000/svg" xmlns:xlink="http://www.w3.org/1999/xlink" width="219" height="297" viewBox="0 0 219 297">
  <defs>
    <clipPath id="clip-path">
      <rect id="Rectangle_183" data-name="Rectangle 183" width="219" height="297" transform="translate(1561 1183)" fill="#d7dcec"/>
    </clipPath>
  </defs>
  <g id="Mask_Group_24" data-name="Mask Group 24" transform="translate(-1561 -1183)" clip-path="url(#clip-path)">
    <path id="Path_518" data-name="Path 518" d="M1337.2,240.506a87.776,87.776,0,0,0-7.977,4.514c-.525.389-1.751,1.245-2.724,1.868a63.792,63.792,0,0,0-6.5,5.02c-2.043,1.712-8.366,8.016-9.845,9.786-2.2,2.7-5.1,6.459-6.012,7.86-2.86,4.339-3.775,5.817-4.942,7.9a99.38,99.38,0,0,0-5.1,10.779c-.35,1.012-.72,2-.837,2.2-1.576,3.074-4.786,15.72-5.389,21.226-.117,1.07-.292,2.782-.428,3.794-.292,2.451-.272,20.779.02,24.417.642,7.86,1.167,12.14,2.568,20.72,1.265,7.8,1.343,8.288,2.354,12.744.525,2.354,1.128,5.195,1.362,6.323.661,3.23,2.627,11.129,3.074,12.238a5.752,5.752,0,0,1,.389,1.44c0,.253.525,2.276,1.187,4.514.642,2.257,1.479,5.175,1.829,6.518s.8,2.821.973,3.308.759,2.237,1.284,3.891c2.354,7.374,3.93,12.082,4.086,12.179a.629.629,0,0,1,.175.486c0,.214.7,2.3,1.557,4.611.837,2.315,1.6,4.475,1.673,4.806.078.311.739,2.062,1.5,3.891.739,1.809,1.459,3.7,1.6,4.183.214.817,2.588,6.771,3,7.529.1.195.506,1.128.9,2.1,2.335,5.681,3.483,8.385,4.339,10.117a29.764,29.764,0,0,1,1.206,2.724c.136.428,1.459,3.366,2.957,6.518s3.113,6.6,3.56,7.627c.467,1.031,1.206,2.49,1.634,3.23.428.759,1.167,2.179,1.634,3.191.467.992,1.576,3.113,2.471,4.728.876,1.6,2.393,4.358,3.366,6.129s2.121,3.736,2.568,4.378a16.174,16.174,0,0,1,1.031,1.732c.253.584,1.693,2.918,3.794,6.167.661,1.012,1.479,2.276,1.79,2.782,1.148,1.829,1.809,2.782,3.872,5.662,1.148,1.6,2.2,3,2.335,3.113a8.467,8.467,0,0,1,.8.973,89.577,89.577,0,0,0,6.265,7.218c3.852,3.969,6.907,6.5,9.4,7.763a3.8,3.8,0,0,1,1.6,1.245c.175.331.486.6.681.6.448-.019,1.031-.447,1.031-.8a5.245,5.245,0,0,1,.642-1.343c.35-.584,1.109-2.082,1.673-3.307,2.121-4.65,2.666-5.778,3.269-6.81a6.681,6.681,0,0,0,.642-1.245c0-.233,2.7-5.876,4.533-9.455.74-1.44,1.634-3.366,2.024-4.28.37-.914,1.012-2.276,1.42-3.016.409-.759,1.673-3.327,2.821-5.739,1.128-2.412,2.763-5.778,3.6-7.49s1.576-3.307,1.654-3.56,1.362-2.957,2.86-6.031c1.479-3.074,2.86-5.934,3.055-6.362s1.051-2.179,1.926-3.891c.856-1.712,1.615-3.327,1.693-3.6s.681-1.576,1.342-2.918c.681-1.342,2.082-4.28,3.113-6.518,1.031-2.257,2.451-5.175,3.132-6.518s1.5-3.093,1.809-3.891,1.42-3.21,2.451-5.331a34.708,34.708,0,0,0,1.868-4.3,27.466,27.466,0,0,0-1.226-3.424c-1.926-4.669-2.743-6.751-3.444-8.638-.992-2.724-1.381-3.6-1.673-3.6-.272,0-.856.739-.856,1.109a30.791,30.791,0,0,1-1.381,3.113c-.759,1.576-1.556,3.288-1.751,3.794s-.778,1.77-1.3,2.821-1.187,2.471-1.479,3.171-1.187,2.627-1.965,4.28c-2,4.2-5.545,12.024-5.545,12.238a.3.3,0,0,1-.136.253,31.945,31.945,0,0,0-2.413,5,10.356,10.356,0,0,1-.739,1.654c-.195.331-1.3,2.607-2.452,5.078-1.148,2.451-2.159,4.572-2.237,4.669a8.38,8.38,0,0,0-.584,1.265c-.214.584-.992,2.257-1.731,3.7-.72,1.44-1.44,2.938-1.576,3.307s-.817,1.868-1.517,3.307c-.681,1.44-1.732,3.677-2.315,4.961s-1.128,2.412-1.226,2.529c-.078.1-.564,1.128-1.051,2.276-.486,1.167-1.362,3-1.946,4.086-.584,1.109-1.245,2.432-1.44,2.977-.214.525-1.284,2.8-2.374,5.059-3.054,6.265-4.008,8.269-4.475,9.436-.681,1.654-.837,1.732-1.556.953-.331-.37-1.109-1.323-1.712-2.121s-1.459-1.907-1.887-2.432c-.9-1.07-3.463-4.63-4.066-5.6-.214-.35-.876-1.323-1.5-2.179-.6-.856-1.634-2.451-2.276-3.521-.642-1.09-1.479-2.393-1.848-2.918a20.611,20.611,0,0,1-1.187-1.926c-.292-.545-.973-1.712-1.517-2.627s-1.187-2.062-1.44-2.549c-.253-.506-.837-1.518-1.3-2.237-.486-.739-1.343-2.315-1.946-3.483-.584-1.187-1.42-2.763-1.848-3.5-.409-.759-1.576-3.035-2.588-5.059-1.012-2.043-2.452-4.922-3.21-6.42s-1.654-3.4-1.984-4.222-1.109-2.568-1.751-3.891-1.284-2.743-1.459-3.171-.875-2.023-1.556-3.522c-.681-1.518-1.3-2.977-1.381-3.249a26.7,26.7,0,0,0-1.265-2.9c-.623-1.3-1.323-2.938-1.557-3.619-.389-1.148-2.315-5.992-3.055-7.724-.194-.428-.525-1.3-.778-1.946-.233-.642-.934-2.49-1.537-4.086-1.6-4.164-1.6-4.027-.6-4.9.467-.409,1.265-1.09,1.79-1.518s1.518-1.323,2.218-1.965c.7-.661,1.654-1.537,2.121-1.946.486-.428,1.4-1.245,2.062-1.829.642-.584,2.14-1.907,3.307-2.918s2.607-2.335,3.191-2.918,1.343-1.265,1.654-1.518c.331-.233,1.089-.895,1.693-1.459.6-.545,2.121-1.926,3.385-3.055s2.918-2.607,3.677-3.307c.778-.7,2.1-1.887,2.938-2.627.856-.759,2.082-1.848,2.724-2.432.642-.6,1.965-1.77,2.918-2.627.973-.837,2.315-2.062,3.016-2.724.7-.642,2.413-2.179,3.794-3.4s2.88-2.588,3.308-3.035a16.238,16.238,0,0,1,1.556-1.362,20.832,20.832,0,0,0,1.965-1.732c.661-.642,2.1-1.965,3.21-2.918,1.109-.973,2.354-2.14,2.8-2.607a14.62,14.62,0,0,1,1.634-1.5c.467-.37,1.479-1.265,2.257-1.984,1.984-1.868,3.133-2.9,4.572-4.125,2.16-1.829,2.062-1.693,1.809-2.3-.117-.292-.506-1.226-.856-2.082s-1.206-2.627-1.868-3.95a22.229,22.229,0,0,1-1.226-2.588,13.071,13.071,0,0,0-1.42-3.093,11.157,11.157,0,0,0-1.654,1.381c-.837.759-3.56,3.269-6.07,5.584-2.51,2.3-5.136,4.728-5.837,5.409-.7.661-2,1.848-2.918,2.646-.9.778-2.393,2.14-3.307,3.016s-2.043,1.926-2.529,2.335-1.459,1.284-2.14,1.946c-1.537,1.459-6.965,6.459-7.471,6.868-.195.156-1.129.992-2.043,1.848-.914.875-2.276,2.082-3,2.7s-1.771,1.576-2.335,2.1c-.914.876-2.685,2.471-4.358,3.93-.331.292-1.089.992-1.673,1.537-.584.564-2.2,2.023-3.561,3.249-1.381,1.226-2.918,2.646-3.424,3.152a4.6,4.6,0,0,1-1.09.934,13.394,13.394,0,0,0-1.848,1.6c-.934.895-2.549,2.354-3.56,3.269-1.031.914-2.413,2.2-3.094,2.879a7.556,7.556,0,0,1-1.4,1.206,51.167,51.167,0,0,1-1.946-5.506c-1.732-5.292-2.257-7.043-3.911-12.88-.428-1.5-1.09-3.736-1.459-4.961a28.21,28.21,0,0,1-.817-3.016c-.078-.428-.7-3.016-1.381-5.739-2.082-8.385-4.767-21.129-5.058-23.872-.058-.623-.272-2.276-.467-3.658-.545-3.736-1.031-7.335-1.634-12.354a102.358,102.358,0,0,1-.8-15.467c0-9.2.214-11.09,2.043-19.553.311-1.44.661-3.113.778-3.7a82.594,82.594,0,0,1,4.611-13.035c.486-1.012,1.226-2.627,1.634-3.6a25.354,25.354,0,0,1,1.615-3.016c.467-.7.992-1.576,1.187-1.946a41.135,41.135,0,0,1,2.86-4.592,4.917,4.917,0,0,0,.739-1.187,5.173,5.173,0,0,1,.837-1.167c.467-.545,1.187-1.459,1.6-2.023a93.548,93.548,0,0,1,7.821-8.658c3.132-2.918,8.7-7.3,10.37-8.152a9.791,9.791,0,0,1,2.315-.584,16.2,16.2,0,0,1,6.926.681,74.876,74.876,0,0,1,8.755,4.378c1.187.72,2.276,1.362,2.432,1.44a20.345,20.345,0,0,1,2.821,1.887c.117.117,1.07.8,2.14,1.518,1.07.7,2.782,1.887,3.794,2.627,1.012.759,2.763,1.984,3.891,2.763,1.128.759,2.432,1.712,2.9,2.1s1.537,1.128,2.374,1.673c.817.525,2.626,1.751,4.008,2.685a53.988,53.988,0,0,0,5.992,3.852A22.311,22.311,0,0,1,1387,282.57c2.1,1.381,10.175,5.253,10.973,5.253.234,0,.409.058.409.156,0,.311,4.417,1.673,7.685,2.393,1.693.35,2.743.428,7.918.506a60.022,60.022,0,0,0,12.9-.739,81.009,81.009,0,0,0,8.95-2.1,6.342,6.342,0,0,1,1.323-.389c.623-.136,2.724-.817,4.669-1.518s4.2-1.479,5-1.751a18.134,18.134,0,0,0,2.335-.934,37.332,37.332,0,0,1,4.592-2.043c.292,0,2.88-1.206,9.222-4.319,6.654-3.23,6.79-3.307,8.658-4.3,1.712-.895,10.954-5.389,11.09-5.389.039,0,.739-.311,1.556-.681a48.814,48.814,0,0,1,6.42-2.237,2.519,2.519,0,0,0,.739-.292c1.265-.642,4.767-1.148,8.21-1.148,4.533-.019,6.654.37,7.88,1.44a3.054,3.054,0,0,0,1.323.778c.486,0,.564.078,2.782,2.549a71.547,71.547,0,0,1,4.844,5.681c.486.681,1.226,1.673,1.673,2.218.428.525,1.343,1.887,2.023,3,.661,1.109,1.343,2.16,1.459,2.315.253.311,1.459,2.413,3,5.253a30.082,30.082,0,0,1,1.323,2.724,46.773,46.773,0,0,0,2.237,5.059c.428.331,3.716,11.382,4.047,13.619.1.7.311,1.887.467,2.665l.253,1.4-.584.525a53.118,53.118,0,0,1-4.708,3.288c-.661.447-1.693,1.148-2.257,1.576a29.114,29.114,0,0,1-4.027,2.685,10.516,10.516,0,0,0-1.868,1.265,13.47,13.47,0,0,1-1.829,1.323c-2.179,1.245-3.852,2.276-4.222,2.568a17.764,17.764,0,0,1-1.848,1.187c-.8.467-1.887,1.187-2.432,1.556a28.442,28.442,0,0,1-2.782,1.654,19.619,19.619,0,0,0-2.724,1.673,8.773,8.773,0,0,1-1.6,1.07,26.578,26.578,0,0,0-3.911,2.14,16.066,16.066,0,0,1-1.848,1.031c-.837.409-2.1,1.109-2.782,1.537a33.566,33.566,0,0,1-3.016,1.693c-.973.486-2.607,1.381-3.619,1.965-1.012.6-3.035,1.712-4.475,2.451-1.44.759-2.724,1.459-2.841,1.537-.506.409-5.078,2.9-7.179,3.93a28.412,28.412,0,0,0-3.016,1.654,8.392,8.392,0,0,1-2.666,1.42,7.689,7.689,0,0,0-1.459.739,31.02,31.02,0,0,1-2.879,1.615c-2.549,1.323-6.3,3.346-6.81,3.658-.156.1-1.07.525-2,.973a26.233,26.233,0,0,0-2.7,1.5,14.815,14.815,0,0,1-2.354,1.245,12.614,12.614,0,0,0-1.965,1.012,25.854,25.854,0,0,1-2.646,1.459c-1.128.545-2.393,1.226-2.821,1.479-.428.272-2.354,1.284-4.28,2.237a35.475,35.475,0,0,0-4.086,2.237,2.981,2.981,0,0,1-.739.506,30.011,30.011,0,0,0-4.319,2.043,25.3,25.3,0,0,1-3.736,1.848,3.532,3.532,0,0,0-.7.428c-.35.253-2.276,1.284-4.319,2.315-2.023,1.031-4.222,2.2-4.844,2.588a10.029,10.029,0,0,1-1.284.7,9.049,9.049,0,0,1-.876-1.907c-.759-1.946-2.7-6.6-5.175-12.393-.759-1.829-1.557-3.755-1.732-4.28a33.247,33.247,0,0,0-1.848-4.378,27.015,27.015,0,0,1-1.517-3.7c-.175-.486-.72-1.848-1.206-3.016-.506-1.187-1.148-2.8-1.459-3.6s-1.031-2.568-1.615-3.911c-.584-1.362-1.3-3.152-1.576-3.988a61.932,61.932,0,0,0-2.49-6.5,14.977,14.977,0,0,1-.817-2.14c-.37-1.128-1.109-3.269-1.673-4.767s-1.206-3.346-1.459-4.086c-.253-.759-1.07-3.074-1.829-5.156s-1.381-3.911-1.381-4.047c0-.35-2.14-6.887-2.335-7.14a14.447,14.447,0,0,1-.973-2.938c0-.175-.623-2.3-1.362-4.708-.759-2.432-1.6-5.292-1.848-6.362s-.72-2.685-1.031-3.58l-.545-1.654-1.07-.35c-.584-.214-1.576-.486-2.218-.642s-2.218-.642-3.5-1.09c-4.611-1.576-5.681-1.907-7.918-2.51-1.907-.525-2.3-.7-2.3-.992a.344.344,0,0,0-.389-.37c-.331,0-.389.117-.35.681.02.37.117.681.195.681s.156.214.156.467.623,2.374,1.381,4.708c.759,2.354,1.556,4.825,1.751,5.525s1.012,3.152,1.809,5.448,1.868,5.448,2.374,7a31.694,31.694,0,0,0,1.167,3.21,18.658,18.658,0,0,1,.759,2.043c.292.914.934,2.743,1.42,4.086s.992,2.743,1.129,3.113.953,2.51,1.829,4.767c.876,2.237,1.848,4.864,2.179,5.837a54.192,54.192,0,0,0,2.374,5.992,14.948,14.948,0,0,1,.817,1.984c.136.545,2.14,5.584,6.459,16.148.953,2.354,2.062,4.922,2.451,5.681a9.875,9.875,0,0,1,.7,1.615c0,.195,1.051,2.763,1.946,4.767.194.428,1.206,2.743,2.237,5.156,1.051,2.413,1.965,4.455,2.062,4.553a.943.943,0,0,1,.175.525,44.828,44.828,0,0,0,2.412,5.681,13.619,13.619,0,0,1,.817,1.887,13.35,13.35,0,0,0,.661,1.654,2.6,2.6,0,0,1,.292.681,17.454,17.454,0,0,0,.72,1.693c.311.681.992,2.257,1.5,3.5.525,1.265,1.42,3.385,2,4.728s1.5,3.444,2,4.669,1.226,2.763,1.576,3.424a6.583,6.583,0,0,1,.661,1.42c0,.136.739,1.946,1.654,4.008.914,2.082,1.654,3.813,1.654,3.891s.506,1.187,1.148,2.49a56.756,56.756,0,0,1,2.354,5.487c.253.642.953,2.218,1.6,3.5.623,1.265,1.129,2.393,1.129,2.471,0,.1.739,1.829,1.654,3.872.914,2.023,1.654,3.774,1.654,3.872s.7,1.673,1.537,3.541c.837,1.848,1.771,3.969,2.082,4.728.292.739.992,2.315,1.537,3.5.564,1.167,1.226,2.665,1.5,3.307s.953,2.179,1.518,3.4,1.148,2.588,1.3,3.016c.156.409.875,1.985,1.6,3.5.739,1.5,1.44,3.055,1.576,3.483.233.72,2.276,5.331,2.821,6.343.136.272.564,1.226.953,2.14.37.914.934,2.179,1.245,2.821s.759,1.693,1.012,2.335,1.128,2.646,1.984,4.436c.837,1.809,1.518,3.346,1.518,3.424,0,.136,1.537,3.677,2.257,5.175a2.223,2.223,0,0,0,.525.837.163.163,0,0,1,.019.253.107.107,0,0,0,.1.175c.117,0,.214.136.214.311a32.137,32.137,0,0,0,1.479,3.56c.817,1.77,1.6,3.541,1.732,3.93.136.37.914,2.043,1.731,3.7a32.076,32.076,0,0,1,1.479,3.249c0,.234.681,1.732,4.572,10.253.778,1.712,1.673,3.716,1.965,4.475.292.739.895,2.1,1.342,3.016s1.323,2.782,1.907,4.183c2.062,4.844,3.424,7.588,3.774,7.666a3.936,3.936,0,0,0,1.907-.856c.117-.117.6-.545,1.109-.934a80.458,80.458,0,0,0,9.417-9.961c.817-1.07,1.712-2.218,1.965-2.529,1.128-1.4,3.23-4.241,3.716-5.039.292-.467,1.07-1.634,1.712-2.588.661-.953,1.381-2.062,1.6-2.471s.953-1.576,1.654-2.607c1.342-2.043,4.417-7.2,4.767-8.055a7.906,7.906,0,0,1,.895-1.4,18.794,18.794,0,0,0,1.5-2.588c.467-.934,1.148-2.237,1.518-2.879,2.2-3.833,8.58-16.362,8.58-16.829a26.283,26.283,0,0,1,1.206-2.588,19.8,19.8,0,0,0,1.167-2.529c-.019-.078.058-.136.195-.136.117,0,.156-.058.1-.117-.078-.078,0-.37.156-.642.506-.914,3.4-7.471,3.541-7.977a19.707,19.707,0,0,1,1.109-2.451c.545-1.07,1.245-2.607,1.557-3.4.992-2.607,1.712-4.358,2.2-5.448.778-1.693,4.339-10.681,4.63-11.674.078-.272.6-1.634,1.167-3.016.545-1.4,1.265-3.269,1.556-4.183.311-.914,1.323-3.794,2.257-6.42,1.576-4.455,4.2-12.432,4.942-15.078.195-.642.428-1.381.545-1.654a3.294,3.294,0,0,0,.214-.584,1.8,1.8,0,0,1,.136-.292c.194-.292,1.731-5.448,1.907-6.382.1-.447.739-2.841,1.459-5.292,1.479-5.059,4.222-15.837,4.708-18.483.175-.973.584-2.841.9-4.183.778-3.307,2.237-10.993,2.471-13.133.117-.973.37-2.86.584-4.222a175.864,175.864,0,0,0,2.354-28.289,90.37,90.37,0,0,0-1.868-20.215c-.37-1.829-.778-3.794-.895-4.378a73.356,73.356,0,0,0-2.062-7.627c-.214-.467-.661-1.673-1.012-2.685-.817-2.432-1.732-4.708-2.8-7.1-1.148-2.549-4.961-9.728-5.409-10.214-.195-.214-.292-.389-.214-.389s.058-.078-.058-.156a16.266,16.266,0,0,1-1.284-1.907,73.1,73.1,0,0,0-4.553-6.4c-.117-.117-.642-.759-1.148-1.459-.778-1.07-4.4-5.253-5.37-6.206a100.917,100.917,0,0,0-8.7-7.9c-.292-.214-1.381-1.07-2.432-1.907l-1.906-1.518-3.833-.117a43.652,43.652,0,0,0-16.09,2.023c-1.167.37-2.354.8-2.626.934s-1.148.486-1.946.8c-.8.292-2.2.895-3.113,1.342s-1.965.934-2.335,1.09A41.809,41.809,0,0,0,1473.62,255a16.521,16.521,0,0,1-2.121,1.109,16.239,16.239,0,0,0-2.062,1.051c-5.525,3.055-8.522,4.669-10.059,5.37a32.062,32.062,0,0,0-2.879,1.5c-.642.389-2.354,1.245-3.813,1.907s-3.385,1.556-4.3,2c-.914.428-2.218,1.012-2.919,1.3s-1.615.681-2.043.856a67.09,67.09,0,0,1-6.907,2.451,24.483,24.483,0,0,0-2.627.876,45.566,45.566,0,0,1-7.179,1.751c-.875.1-2.627.311-3.911.486-8.638,1.109-16.537.156-23.25-2.8a19.111,19.111,0,0,0-2.51-.992,80.212,80.212,0,0,1-8.288-4.319c-1.167-.7-2.743-1.615-3.5-2.062-.739-.428-1.965-1.245-2.724-1.79a13.809,13.809,0,0,0-1.654-1.128c-.253-.1-1.809-1.148-5.934-4.027-.739-.525-1.79-1.284-2.3-1.693a4.253,4.253,0,0,0-1.187-.739,4.025,4.025,0,0,1-1.109-.739,52.143,52.143,0,0,0-4.553-3.327c-1.284-.856-2.549-1.712-2.821-1.887a54.153,54.153,0,0,0-5.545-3.483c-.953-.525-2.471-1.342-3.346-1.848-2.9-1.654-11.6-4.533-14.456-4.786A3.462,3.462,0,0,0,1337.2,240.506Zm196.8,93.719c-.233,3.833-.545,7-1.245,12.646-.253,2.023-.564,4.572-.7,5.642-.35,3-3.346,19.047-3.794,20.331-.1.292-2.276,9.3-2.627,10.9-.272,1.167-1.07,4.125-1.79,6.518-.331,1.07-.837,2.86-1.148,3.988-.292,1.128-.8,2.879-1.109,3.891-.642,2.16-1.829,6.109-2.412,8.074a14.158,14.158,0,0,1-.545,1.556,38.98,38.98,0,0,0-1.265,3.7c-1.148,3.619-2.023,6.206-4.027,11.868-.642,1.809-1.245,3.521-1.323,3.794-.1.272-.564,1.518-1.051,2.782a24.458,24.458,0,0,0-.9,2.588,15.279,15.279,0,0,1-.856,2.179c-1.381,3.113-1.809,4.164-2.257,5.487-.389,1.187-1.907,4.942-2.724,6.712-.195.428-.837,1.907-1.42,3.307-.584,1.381-1.342,3.113-1.673,3.833a8.7,8.7,0,0,0-.6,1.556,25.869,25.869,0,0,1-1.245,2.782c-.681,1.381-1.557,3.269-1.926,4.183-.389.914-1.012,2.315-1.4,3.113-.409.8-1.946,3.988-3.444,7.1-1.5,3.093-2.841,5.778-2.977,5.934s-.875,1.556-1.673,3.113c-.778,1.556-1.693,3.307-2.043,3.891-.331.584-1.128,1.984-1.751,3.113s-1.42,2.51-1.771,3.055a12.1,12.1,0,0,0-.837,1.518,27.893,27.893,0,0,1-1.459,2.451c-.7,1.07-1.479,2.374-1.732,2.86-.467.914-5.136,7.977-5.759,8.7a14.149,14.149,0,0,0-.837,1.265,12.639,12.639,0,0,1-1.265,1.732l-.778.856-.506-.992a5.68,5.68,0,0,1-.506-1.226c0-.233-1.3-3.269-2.432-5.7-1.187-2.549-3.95-8.775-4.066-9.2-.078-.234-.8-1.79-1.6-3.444s-1.44-3.094-1.44-3.21a48.888,48.888,0,0,0-2.743-6.012.157.157,0,0,1-.058-.253c.058-.1.019-.175-.078-.175s-.234-.253-.292-.564a11.421,11.421,0,0,0-.584-1.6c-1.381-3-2.3-5.117-2.957-6.79-.409-1.012-1.089-2.549-1.517-3.4s-.992-2.121-1.245-2.821c-.642-1.673-2.549-6.012-2.9-6.557a1.627,1.627,0,0,1-.272-.642c0-.1-.661-1.654-1.479-3.444-.817-1.809-1.654-3.736-1.848-4.3s-.876-2.1-1.5-3.4c-.642-1.3-1.342-2.86-1.556-3.444-.331-.9-2.121-5.059-3.774-8.755-1.771-3.969-2.2-4.942-2.627-6.129-.272-.759-1.109-2.665-1.829-4.241-.739-1.6-1.342-2.957-1.342-3.055,0-.195-4.9-11.6-5.564-12.9a14.64,14.64,0,0,1-.739-1.848,38.071,38.071,0,0,0-2.276-5.214,17.171,17.171,0,0,1-.953-2.16c0-.214-.953-2.568-2.86-6.985l-1.342-3.113.914-.486c.486-.253,2.977-1.5,5.487-2.743,2.529-1.265,4.63-2.374,4.689-2.471a5.665,5.665,0,0,1,1.926-.992,18.35,18.35,0,0,0,2.374-1.187c1.187-.661,2.607-1.4,3.171-1.634a6.966,6.966,0,0,0,1.362-.7c.175-.156,2.257-1.226,4.611-2.393a55.807,55.807,0,0,0,4.961-2.685,5.464,5.464,0,0,1,1.576-.8,15.416,15.416,0,0,0,2.238-1.051c.739-.428,2.14-1.167,3.093-1.615a18.923,18.923,0,0,0,2.043-1.07c.156-.136,2.257-1.245,4.669-2.451,2.413-1.187,4.65-2.374,4.961-2.627a10.208,10.208,0,0,1,1.615-.837,16.285,16.285,0,0,0,2.335-1.167c.72-.428,2-1.109,2.86-1.518a23.059,23.059,0,0,0,2.218-1.167c.35-.233,2.49-1.362,4.767-2.51,2.257-1.128,4.28-2.237,4.494-2.432a5.608,5.608,0,0,1,1.167-.681,15.874,15.874,0,0,0,3.074-1.518,23.723,23.723,0,0,1,2.626-1.4,19.925,19.925,0,0,0,2.471-1.323c.331-.233,1.634-.973,2.918-1.615,4.572-2.315,5.253-2.685,5.915-3.113.35-.253,1.634-.934,2.821-1.537a21.618,21.618,0,0,0,2.549-1.44,7.574,7.574,0,0,1,1.479-.837,26.3,26.3,0,0,0,2.918-1.634,29.229,29.229,0,0,1,2.957-1.673,20.871,20.871,0,0,0,2.7-1.6,18.508,18.508,0,0,1,2.237-1.362,22.818,22.818,0,0,0,2.257-1.323c.875-.584,2.315-1.42,3.191-1.868a16.412,16.412,0,0,0,2.237-1.381,15.659,15.659,0,0,1,3.463-2.082,11.219,11.219,0,0,0,1.654-1.031,11.18,11.18,0,0,1,1.362-.934l.973-.6.058,2.276C1534.186,329.692,1534.108,332.3,1533.991,334.225Z" transform="translate(292.004 942.77)" fill="#d7dcec"/>
  </g>
</svg>
