<svg xmlns="http://www.w3.org/2000/svg" width="399.809" height="456.087" viewBox="0 0 399.809 456.087">
  <path id="Path_518" data-name="Path 518" d="M1363.892,695.311a134.722,134.722,0,0,1-12.24-6.926c-.806-.6-2.687-1.911-4.179-2.866a97.891,97.891,0,0,1-9.971-7.7c-3.135-2.627-12.837-12.3-15.106-15.016-3.373-4.149-7.821-9.911-9.224-12.06-4.388-6.657-5.792-8.926-7.583-12.12a152.49,152.49,0,0,1-7.821-16.538c-.537-1.552-1.1-3.075-1.284-3.373-2.418-4.717-7.344-24.121-8.269-32.569-.179-1.642-.448-4.269-.657-5.821-.448-3.761-.418-31.883.03-37.465.985-12.06,1.791-18.628,3.941-31.793,1.94-11.971,2.06-12.717,3.612-19.553.806-3.612,1.731-7.971,2.09-9.7,1.015-4.956,4.03-17.076,4.717-18.777a8.822,8.822,0,0,0,.6-2.209c0-.388.806-3.493,1.821-6.926.985-3.463,2.269-7.941,2.806-10s1.224-4.329,1.493-5.075,1.164-3.433,1.97-5.971c3.612-11.314,6.03-18.538,6.269-18.688a.965.965,0,0,0,.269-.746c0-.328,1.075-3.523,2.388-7.075,1.284-3.552,2.448-6.866,2.567-7.374.119-.478,1.134-3.164,2.3-5.971,1.134-2.776,2.239-5.672,2.448-6.418.328-1.254,3.97-10.389,4.6-11.553.149-.3.776-1.731,1.373-3.224,3.582-8.717,5.344-12.866,6.657-15.523a45.665,45.665,0,0,0,1.851-4.179c.209-.657,2.239-5.164,4.538-10s4.776-10.12,5.463-11.7c.716-1.582,1.851-3.821,2.508-4.956.657-1.164,1.791-3.344,2.508-4.9.717-1.522,2.418-4.776,3.791-7.254,1.344-2.448,3.672-6.687,5.165-9.4s3.254-5.732,3.941-6.717a24.857,24.857,0,0,0,1.582-2.657c.388-.9,2.6-4.478,5.821-9.463,1.015-1.552,2.269-3.493,2.746-4.269,1.761-2.806,2.776-4.269,5.941-8.687,1.761-2.448,3.373-4.6,3.582-4.776a12.975,12.975,0,0,0,1.224-1.493,137.433,137.433,0,0,1,9.613-11.075c5.911-6.09,10.6-9.971,14.419-11.911a5.837,5.837,0,0,0,2.448-1.911c.269-.508.746-.925,1.045-.925.687.03,1.582.687,1.582,1.224a8.041,8.041,0,0,0,.985,2.06c.537.9,1.7,3.194,2.567,5.075,3.254,7.135,4.09,8.866,5.015,10.448a10.246,10.246,0,0,1,.985,1.911c0,.358,4.149,9.015,6.956,14.508,1.135,2.209,2.508,5.164,3.1,6.568.567,1.4,1.552,3.493,2.179,4.627.627,1.164,2.567,5.1,4.329,8.807,1.731,3.7,4.239,8.866,5.523,11.493s2.418,5.075,2.537,5.463,2.09,4.538,4.388,9.254c2.269,4.717,4.388,9.105,4.687,9.762s1.612,3.344,2.955,5.97c1.314,2.627,2.478,5.1,2.6,5.523s1.045,2.418,2.06,4.478c1.045,2.06,3.194,6.568,4.776,10,1.582,3.463,3.761,7.941,4.806,10s2.3,4.747,2.776,5.97,2.179,4.926,3.761,8.18a53.254,53.254,0,0,1,2.866,6.6,42.134,42.134,0,0,1-1.881,5.254c-2.955,7.165-4.209,10.359-5.284,13.255-1.522,4.179-2.12,5.523-2.567,5.523-.418,0-1.313-1.134-1.313-1.7a47.233,47.233,0,0,0-2.12-4.776c-1.164-2.418-2.388-5.045-2.687-5.821s-1.194-2.717-2-4.329-1.821-3.791-2.269-4.866-1.821-4.03-3.015-6.568c-3.075-6.448-8.508-18.449-8.508-18.777a.466.466,0,0,0-.209-.388c-.328-.119-3.045-5.762-3.7-7.672a15.9,15.9,0,0,0-1.134-2.537c-.3-.508-2-4-3.761-7.792-1.761-3.761-3.313-7.015-3.433-7.165a12.857,12.857,0,0,1-.9-1.94c-.328-.9-1.522-3.463-2.657-5.672-1.1-2.209-2.209-4.508-2.418-5.075s-1.254-2.866-2.328-5.075c-1.045-2.209-2.657-5.642-3.552-7.612s-1.731-3.7-1.881-3.881c-.119-.149-.866-1.731-1.612-3.493-.746-1.791-2.09-4.6-2.985-6.269-.9-1.7-1.911-3.732-2.209-4.567-.328-.806-1.97-4.3-3.642-7.762-4.687-9.613-6.15-12.687-6.866-14.478-1.045-2.537-1.284-2.657-2.388-1.463-.507.567-1.7,2.03-2.627,3.254s-2.239,2.926-2.9,3.732c-1.373,1.642-5.314,7.1-6.239,8.6-.328.537-1.344,2.03-2.3,3.343-.926,1.314-2.508,3.761-3.493,5.4-.985,1.672-2.269,3.672-2.836,4.478a31.652,31.652,0,0,0-1.821,2.955c-.448.836-1.493,2.627-2.328,4.03s-1.821,3.164-2.209,3.911c-.388.776-1.284,2.328-2,3.433-.746,1.134-2.06,3.552-2.985,5.344-.9,1.821-2.179,4.239-2.836,5.373-.627,1.164-2.418,4.657-3.97,7.762-1.552,3.135-3.761,7.553-4.926,9.851s-2.537,5.224-3.045,6.478-1.7,3.941-2.687,5.971-1.97,4.209-2.239,4.866-1.343,3.1-2.388,5.4c-1.045,2.328-2,4.567-2.12,4.985a40.955,40.955,0,0,1-1.94,4.448c-.955,2-2.03,4.508-2.388,5.553-.6,1.761-3.552,9.195-4.687,11.852-.3.657-.806,2-1.194,2.985-.358.985-1.433,3.821-2.358,6.269-2.448,6.388-2.448,6.18-.925,7.523.716.627,1.94,1.672,2.746,2.328s2.328,2.03,3.4,3.015c1.075,1.015,2.537,2.358,3.254,2.985.746.657,2.149,1.911,3.164,2.806.985.9,3.284,2.926,5.075,4.478s4,3.582,4.9,4.478,2.06,1.94,2.537,2.328c.507.358,1.672,1.373,2.6,2.239.925.836,3.254,2.955,5.194,4.687s4.478,4,5.642,5.075c1.194,1.075,3.224,2.9,4.508,4.03,1.314,1.164,3.194,2.836,4.179,3.732.985.925,3.015,2.717,4.478,4.03,1.493,1.284,3.552,3.164,4.627,4.179,1.075.985,3.7,3.344,5.821,5.224s4.418,3.97,5.075,4.657a24.913,24.913,0,0,0,2.388,2.09,31.964,31.964,0,0,1,3.015,2.657c1.015.985,3.224,3.015,4.926,4.478,1.7,1.493,3.612,3.284,4.3,4a22.418,22.418,0,0,0,2.508,2.3c.717.567,2.269,1.94,3.463,3.045,3.045,2.866,4.806,4.448,7.015,6.329,3.314,2.806,3.164,2.6,2.776,3.523-.179.448-.776,1.881-1.313,3.194s-1.851,4.03-2.866,6.06a34.116,34.116,0,0,0-1.881,3.97,20.058,20.058,0,0,1-2.179,4.747,17.118,17.118,0,0,1-2.538-2.12c-1.284-1.164-5.463-5.015-9.314-8.568-3.851-3.523-7.881-7.254-8.956-8.3-1.075-1.015-3.075-2.836-4.478-4.06-1.373-1.194-3.672-3.284-5.075-4.627s-3.135-2.955-3.881-3.582-2.239-1.97-3.284-2.985c-2.358-2.239-10.687-9.911-11.463-10.538-.3-.239-1.731-1.522-3.135-2.836-1.4-1.343-3.493-3.194-4.6-4.149s-2.717-2.418-3.582-3.224c-1.4-1.343-4.12-3.791-6.687-6.03-.507-.448-1.672-1.522-2.567-2.358-.9-.866-3.373-3.1-5.463-4.985-2.119-1.881-4.478-4.06-5.254-4.836a7.048,7.048,0,0,0-1.672-1.433,20.557,20.557,0,0,1-2.836-2.448c-1.433-1.373-3.911-3.612-5.463-5.015-1.582-1.4-3.7-3.373-4.747-4.418a11.591,11.591,0,0,0-2.149-1.851,78.547,78.547,0,0,0-2.985,8.448c-2.657,8.12-3.463,10.807-6,19.762-.657,2.3-1.672,5.732-2.239,7.612a43.283,43.283,0,0,0-1.254,4.627c-.119.657-1.075,4.627-2.119,8.807-3.194,12.866-7.314,32.42-7.762,36.629-.09.955-.418,3.493-.716,5.612-.836,5.732-1.582,11.254-2.508,18.956-1.015,8.03-1.224,12.329-1.224,23.733,0,14.12.328,17.016,3.135,30,.478,2.209,1.015,4.776,1.194,5.672.687,3.7,4.567,14.687,7.075,20,.746,1.552,1.881,4.03,2.508,5.523a38.908,38.908,0,0,0,2.478,4.627c.716,1.075,1.522,2.418,1.821,2.985a63.07,63.07,0,0,0,4.388,7.045,7.541,7.541,0,0,1,1.135,1.821,7.937,7.937,0,0,0,1.284,1.791c.717.836,1.821,2.239,2.448,3.1a143.533,143.533,0,0,0,12,13.284c4.806,4.478,13.344,11.195,15.911,12.508a15.027,15.027,0,0,0,3.552.9,24.853,24.853,0,0,0,10.628-1.045,114.91,114.91,0,0,0,13.434-6.717c1.821-1.1,3.493-2.09,3.732-2.209a31.208,31.208,0,0,0,4.329-2.9c.179-.179,1.642-1.224,3.284-2.328,1.642-1.075,4.269-2.9,5.821-4.03,1.552-1.164,4.239-3.045,5.97-4.239,1.731-1.164,3.732-2.627,4.448-3.224s2.358-1.731,3.642-2.567c1.254-.806,4.03-2.687,6.15-4.12,5.851-4,7.881-5.314,9.195-5.911a34.234,34.234,0,0,0,2.985-1.761c3.224-2.12,15.613-8.06,16.837-8.06.358,0,.627-.089.627-.239,0-.478,6.776-2.567,11.792-3.672,2.6-.537,4.209-.657,12.15-.776,9.642-.149,13.374.06,19.792,1.134,3.791.627,13.225,2.836,13.732,3.224a9.731,9.731,0,0,0,2.03.6c.955.209,4.179,1.254,7.165,2.329s6.448,2.269,7.672,2.687a27.8,27.8,0,0,1,3.582,1.433,57.281,57.281,0,0,0,7.045,3.135c.448,0,4.418,1.851,14.15,6.627,10.21,4.956,10.419,5.075,13.284,6.6,2.627,1.373,16.807,8.269,17.016,8.269.06,0,1.134.478,2.388,1.045a74.884,74.884,0,0,0,9.851,3.433,3.863,3.863,0,0,1,1.134.448c1.94.985,7.314,1.761,12.6,1.761,6.956.03,10.209-.567,12.09-2.209a4.687,4.687,0,0,1,2.03-1.194c.746,0,.866-.119,4.269-3.911a109.762,109.762,0,0,0,7.433-8.717c.746-1.045,1.881-2.567,2.567-3.4.657-.806,2.06-2.9,3.1-4.6,1.015-1.7,2.06-3.314,2.239-3.552.388-.478,2.239-3.7,4.6-8.06a46.135,46.135,0,0,0,2.03-4.179,71.764,71.764,0,0,1,3.433-7.762c.657-.508,5.7-17.464,6.209-20.9.149-1.075.478-2.9.717-4.09l.388-2.149-.9-.806a81.5,81.5,0,0,0-7.224-5.045c-1.015-.687-2.6-1.761-3.463-2.418a44.663,44.663,0,0,0-6.179-4.12,16.137,16.137,0,0,1-2.866-1.94,20.686,20.686,0,0,0-2.806-2.03c-3.344-1.911-5.911-3.493-6.478-3.941a27.266,27.266,0,0,0-2.836-1.821c-1.224-.716-2.9-1.821-3.732-2.388a43.62,43.62,0,0,0-4.269-2.537,30.124,30.124,0,0,1-4.179-2.567,13.458,13.458,0,0,0-2.448-1.642,40.783,40.783,0,0,1-6-3.284,24.651,24.651,0,0,0-2.836-1.582c-1.284-.627-3.224-1.7-4.269-2.358a51.5,51.5,0,0,0-4.627-2.6c-1.493-.746-4-2.12-5.553-3.015-1.552-.925-4.657-2.627-6.866-3.761-2.209-1.164-4.179-2.239-4.359-2.358-.776-.627-7.792-4.448-11.016-6.03a43.592,43.592,0,0,1-4.627-2.537,12.873,12.873,0,0,0-4.09-2.179,11.8,11.8,0,0,1-2.239-1.134,47.6,47.6,0,0,0-4.418-2.478c-3.911-2.03-9.672-5.135-10.448-5.612-.239-.149-1.642-.806-3.075-1.493a40.265,40.265,0,0,1-4.15-2.3,22.735,22.735,0,0,0-3.612-1.911,19.357,19.357,0,0,1-3.015-1.552,39.666,39.666,0,0,0-4.06-2.239c-1.731-.836-3.672-1.881-4.329-2.269-.657-.418-3.612-1.97-6.568-3.433a54.435,54.435,0,0,1-6.269-3.433,4.574,4.574,0,0,0-1.134-.776,46.045,46.045,0,0,1-6.627-3.135,38.827,38.827,0,0,0-5.732-2.836,5.412,5.412,0,0,1-1.075-.657c-.537-.388-3.493-1.97-6.627-3.552-3.1-1.582-6.478-3.373-7.433-3.97a15.373,15.373,0,0,0-1.97-1.075,13.891,13.891,0,0,0-1.343,2.926c-1.164,2.985-4.15,10.12-7.941,19.016-1.164,2.806-2.388,5.762-2.657,6.568a51.029,51.029,0,0,1-2.836,6.717,41.433,41.433,0,0,0-2.328,5.672c-.269.746-1.1,2.836-1.851,4.627-.776,1.821-1.761,4.3-2.239,5.523s-1.582,3.941-2.478,6c-.9,2.09-2,4.836-2.418,6.12-1.313,3.911-3.552,9.822-3.821,9.971a23,23,0,0,0-1.254,3.284c-.567,1.731-1.7,5.015-2.567,7.314s-1.851,5.135-2.239,6.269c-.388,1.164-1.642,4.717-2.806,7.911s-2.119,6-2.119,6.209c0,.537-3.284,10.568-3.582,10.956a22.176,22.176,0,0,0-1.493,4.508c0,.269-.955,3.523-2.09,7.224-1.164,3.732-2.448,8.12-2.836,9.762s-1.1,4.12-1.582,5.493l-.836,2.537-1.642.537c-.9.328-2.418.746-3.4.985s-3.4.985-5.373,1.672c-7.075,2.418-8.717,2.926-12.15,3.851-2.926.806-3.522,1.075-3.522,1.522a.528.528,0,0,1-.6.567c-.507,0-.6-.179-.537-1.045.03-.567.179-1.045.3-1.045s.239-.328.239-.716.955-3.642,2.12-7.224c1.164-3.612,2.388-7.4,2.687-8.478s1.552-4.836,2.776-8.359,2.866-8.359,3.642-10.747a48.634,48.634,0,0,1,1.791-4.926,28.637,28.637,0,0,0,1.164-3.135c.448-1.4,1.433-4.209,2.179-6.269s1.523-4.209,1.732-4.776,1.463-3.851,2.806-7.314c1.344-3.433,2.836-7.463,3.344-8.956a83.172,83.172,0,0,1,3.642-9.195A22.938,22.938,0,0,0,1429,549.72c.209-.836,3.284-8.568,9.911-24.778,1.463-3.612,3.164-7.553,3.761-8.717a15.156,15.156,0,0,0,1.075-2.478c0-.3,1.612-4.239,2.985-7.314.3-.657,1.851-4.209,3.433-7.911,1.612-3.7,3.015-6.836,3.164-6.986a1.446,1.446,0,0,0,.269-.806,68.8,68.8,0,0,1,3.7-8.717,20.891,20.891,0,0,0,1.254-2.9,20.516,20.516,0,0,1,1.015-2.537,3.982,3.982,0,0,0,.448-1.045,26.768,26.768,0,0,1,1.1-2.6c.478-1.045,1.522-3.463,2.3-5.373.806-1.94,2.179-5.194,3.075-7.254s2.3-5.284,3.075-7.165,1.881-4.239,2.418-5.254a10.1,10.1,0,0,0,1.015-2.179c0-.209,1.135-2.985,2.538-6.15,1.4-3.194,2.537-5.851,2.537-5.971s.776-1.821,1.761-3.821a87.083,87.083,0,0,0,3.612-8.418c.388-.985,1.463-3.4,2.448-5.373.955-1.94,1.731-3.672,1.731-3.791,0-.149,1.134-2.806,2.537-5.941,1.4-3.1,2.537-5.791,2.537-5.941s1.075-2.567,2.358-5.433c1.284-2.836,2.717-6.09,3.194-7.254.448-1.134,1.523-3.552,2.358-5.373.866-1.791,1.881-4.09,2.3-5.075s1.463-3.344,2.328-5.224,1.761-3.97,2-4.627c.239-.627,1.343-3.045,2.448-5.374,1.134-2.3,2.209-4.687,2.418-5.344.358-1.1,3.493-8.18,4.329-9.732.209-.418.866-1.881,1.463-3.284.567-1.4,1.433-3.344,1.911-4.329s1.164-2.6,1.552-3.582,1.731-4.06,3.045-6.806c1.284-2.776,2.328-5.135,2.328-5.254,0-.209,2.358-5.642,3.463-7.941a3.411,3.411,0,0,1,.806-1.284.25.25,0,0,0,.03-.388.165.165,0,0,1,.149-.269c.179,0,.328-.209.328-.478a49.317,49.317,0,0,1,2.269-5.463c1.254-2.717,2.448-5.433,2.657-6.03.209-.567,1.4-3.135,2.657-5.672a49.234,49.234,0,0,0,2.269-4.985c0-.358,1.045-2.657,7.015-15.732,1.194-2.627,2.567-5.7,3.015-6.866.448-1.134,1.373-3.224,2.06-4.627s2.03-4.269,2.926-6.418c3.164-7.433,5.254-11.643,5.791-11.762a6.041,6.041,0,0,1,2.926,1.314c.179.179.925.836,1.7,1.433,3.344,2.657,10.627,10.389,14.449,15.284,1.254,1.642,2.627,3.4,3.015,3.881,1.731,2.149,4.955,6.508,5.7,7.732.448.716,1.642,2.508,2.627,3.97,1.015,1.463,2.119,3.164,2.448,3.791s1.463,2.418,2.537,4c2.06,3.135,6.777,11.045,7.314,12.359a12.126,12.126,0,0,0,1.373,2.149,28.853,28.853,0,0,1,2.3,3.97c.717,1.433,1.761,3.433,2.329,4.418,3.373,5.881,13.165,25.106,13.165,25.822a40.328,40.328,0,0,0,1.851,3.97,30.373,30.373,0,0,1,1.791,3.881c-.03.12.09.209.3.209.179,0,.239.09.149.179-.119.119,0,.567.239.985.776,1.4,5.224,11.463,5.433,12.24a30.23,30.23,0,0,0,1.7,3.761c.836,1.642,1.91,4,2.388,5.224,1.522,4,2.627,6.687,3.373,8.359,1.194,2.6,6.657,16.389,7.1,17.912.119.418.925,2.508,1.791,4.627.836,2.149,1.94,5.015,2.388,6.418.478,1.4,2.03,5.821,3.463,9.851,2.418,6.836,6.448,19.076,7.583,23.136.3.985.657,2.12.836,2.537a5.053,5.053,0,0,1,.328.9,2.776,2.776,0,0,0,.209.448c.3.448,2.657,8.359,2.926,9.792.149.687,1.134,4.358,2.239,8.12,2.269,7.762,6.478,24.3,7.224,28.36.269,1.493.9,4.358,1.373,6.418,1.194,5.075,3.433,16.867,3.791,20.15.179,1.493.567,4.388.9,6.478a269.824,269.824,0,0,1,3.612,43.406c0,12.717-.746,20.718-2.866,31.017-.567,2.806-1.194,5.821-1.373,6.717a112.526,112.526,0,0,1-3.165,11.7c-.328.716-1.015,2.567-1.552,4.12-1.254,3.732-2.657,7.224-4.3,10.9-1.761,3.911-7.613,14.926-8.3,15.673-.3.328-.448.6-.328.6s.089.119-.09.239a24.963,24.963,0,0,0-1.97,2.926,112.143,112.143,0,0,1-6.985,9.821c-.179.179-.985,1.164-1.761,2.239-1.194,1.642-6.747,8.06-8.24,9.523-6.538,6.389-10.657,10.12-13.344,12.12-.448.328-2.12,1.642-3.732,2.926l-2.925,2.328-5.881.179c-10.06.3-16.688-.537-24.688-3.1-1.791-.567-3.612-1.224-4.03-1.433s-1.761-.746-2.985-1.224c-1.224-.448-3.373-1.373-4.776-2.06s-3.015-1.433-3.582-1.672a64.161,64.161,0,0,1-6.956-3.642,25.357,25.357,0,0,0-3.254-1.7,24.923,24.923,0,0,1-3.164-1.612c-8.478-4.687-13.075-7.165-15.434-8.239a49.16,49.16,0,0,1-4.418-2.3c-.985-.6-3.612-1.911-5.851-2.926s-5.194-2.388-6.6-3.075c-1.4-.657-3.4-1.552-4.478-2s-2.478-1.045-3.135-1.313a102.989,102.989,0,0,0-10.6-3.761,37.559,37.559,0,0,1-4.03-1.343c-.537-.448-8.538-2.388-11.016-2.687-1.343-.149-4.03-.478-6-.746-13.255-1.7-25.375-.239-35.674,4.3a29.319,29.319,0,0,1-3.851,1.522c-.567,0-8.657,4.209-12.717,6.627-1.791,1.075-4.209,2.478-5.373,3.164-1.134.657-3.015,1.911-4.179,2.746a21.194,21.194,0,0,1-2.537,1.731c-.388.149-2.776,1.761-9.1,6.179-1.134.806-2.746,1.97-3.523,2.6a6.529,6.529,0,0,1-1.821,1.134,6.173,6.173,0,0,0-1.7,1.134,79.987,79.987,0,0,1-6.986,5.1c-1.97,1.314-3.911,2.627-4.329,2.9a83.078,83.078,0,0,1-8.508,5.344c-1.463.806-3.791,2.06-5.135,2.836-4.448,2.537-17.792,6.956-22.18,7.344A5.312,5.312,0,0,1,1363.892,695.311Zm301.959-143.8c-.358-5.881-.836-10.747-1.911-19.4-.388-3.1-.866-7.015-1.075-8.657-.537-4.6-5.135-29.226-5.821-31.2-.149-.448-3.493-14.27-4.03-16.717-.418-1.791-1.642-6.329-2.746-10-.508-1.642-1.284-4.388-1.761-6.12-.448-1.731-1.224-4.418-1.7-5.971-.985-3.314-2.806-9.374-3.7-12.389a21.723,21.723,0,0,0-.836-2.388,59.838,59.838,0,0,1-1.94-5.672c-1.761-5.553-3.1-9.523-6.179-18.21-.985-2.776-1.911-5.4-2.03-5.821-.149-.418-.866-2.328-1.612-4.269a37.524,37.524,0,0,1-1.373-3.97,23.445,23.445,0,0,0-1.313-3.344c-2.12-4.776-2.776-6.388-3.463-8.418-.6-1.821-2.926-7.583-4.179-10.3-.3-.657-1.284-2.926-2.179-5.075-.9-2.12-2.06-4.776-2.567-5.881a13.35,13.35,0,0,1-.926-2.388,39.691,39.691,0,0,0-1.911-4.269c-1.045-2.12-2.388-5.015-2.955-6.418-.6-1.4-1.552-3.552-2.149-4.776-.627-1.224-2.985-6.12-5.284-10.9-2.3-4.746-4.359-8.866-4.568-9.1s-1.343-2.388-2.567-4.776c-1.194-2.388-2.6-5.075-3.134-5.971-.508-.9-1.731-3.045-2.687-4.776s-2.179-3.851-2.717-4.687a18.567,18.567,0,0,1-1.284-2.328,42.789,42.789,0,0,0-2.239-3.761c-1.075-1.642-2.269-3.642-2.657-4.388-.716-1.4-7.881-12.24-8.836-13.344a21.732,21.732,0,0,1-1.284-1.94,19.381,19.381,0,0,0-1.94-2.657l-1.194-1.313-.776,1.522a8.708,8.708,0,0,0-.776,1.881c0,.358-2,5.015-3.732,8.747-1.821,3.911-6.06,13.464-6.239,14.12-.12.358-1.224,2.746-2.448,5.284s-2.209,4.747-2.209,4.926a74.992,74.992,0,0,1-4.209,9.224.24.24,0,0,0-.09.388c.09.149.03.269-.119.269s-.358.388-.448.866a17.5,17.5,0,0,1-.9,2.448c-2.12,4.6-3.522,7.851-4.538,10.419-.627,1.552-1.672,3.911-2.328,5.224s-1.523,3.254-1.911,4.329c-.985,2.567-3.911,9.224-4.448,10.06a2.494,2.494,0,0,0-.418.985c0,.149-1.015,2.537-2.269,5.284-1.254,2.776-2.537,5.732-2.836,6.6s-1.343,3.224-2.3,5.224c-.985,2-2.06,4.388-2.388,5.284-.507,1.373-3.254,7.762-5.791,13.434-2.717,6.09-3.373,7.583-4.03,9.4-.418,1.164-1.7,4.09-2.806,6.508-1.134,2.448-2.06,4.538-2.06,4.687,0,.3-7.523,17.792-8.538,19.792a22.461,22.461,0,0,0-1.134,2.836,58.438,58.438,0,0,1-3.493,8,26.326,26.326,0,0,0-1.463,3.314c0,.328-1.463,3.94-4.388,10.717l-2.06,4.776,1.4.746c.746.388,4.567,2.3,8.418,4.209,3.881,1.94,7.1,3.642,7.194,3.791a8.691,8.691,0,0,0,2.955,1.522,28.153,28.153,0,0,1,3.642,1.821c1.821,1.015,4,2.149,4.866,2.508a10.685,10.685,0,0,1,2.09,1.075c.269.239,7.075,3.672,7.075,3.672s7.045,3.642,7.612,4.12a8.385,8.385,0,0,0,2.418,1.224,23.649,23.649,0,0,1,3.433,1.612c1.134.657,3.284,1.791,4.746,2.478a29.021,29.021,0,0,1,3.135,1.642c.239.209,3.463,1.911,7.165,3.761,3.7,1.821,7.135,3.642,7.612,4.03a15.666,15.666,0,0,0,2.478,1.284,25,25,0,0,1,3.582,1.791c1.1.657,3.075,1.7,4.388,2.328a35.389,35.389,0,0,1,3.4,1.791c.537.358,3.821,2.09,7.314,3.851,3.463,1.731,6.568,3.433,6.9,3.732a8.6,8.6,0,0,0,1.791,1.045,24.348,24.348,0,0,1,4.717,2.328,36.406,36.406,0,0,0,4.03,2.149,30.574,30.574,0,0,1,3.791,2.03c.507.358,2.508,1.493,4.478,2.478,7.015,3.552,8.06,4.12,9.075,4.776.537.388,2.508,1.433,4.329,2.358a33.17,33.17,0,0,1,3.911,2.209,11.623,11.623,0,0,0,2.269,1.284,40.34,40.34,0,0,1,4.478,2.508,44.844,44.844,0,0,0,4.538,2.567,32.027,32.027,0,0,1,4.15,2.448,28.4,28.4,0,0,0,3.433,2.09,35.023,35.023,0,0,1,3.463,2.03c1.343.9,3.552,2.179,4.9,2.866a25.182,25.182,0,0,1,3.433,2.12c.955.836,1.343,1.075,5.314,3.194a17.211,17.211,0,0,1,2.537,1.582,17.135,17.135,0,0,0,2.09,1.433l1.493.925.09-3.493C1666.149,558.467,1666.03,554.467,1665.851,551.511Z" transform="translate(-1287.238 -240)" fill="#162347"/>
</svg>
